<?xml version="1.0" encoding="utf-8" ?>
<svg baseProfile="full" height="147.67015414916176" version="1.1" width="80.12257090581625" xmlns="http://www.w3.org/2000/svg" xmlns:ev="http://www.w3.org/2001/xml-events" xmlns:xlink="http://www.w3.org/1999/xlink"><defs /><rect fill="white" height="147.67015414916176" width="80.12257090581625" x="0" y="0" /><path d="M40.28948674764916,99.3936220855765 m0.0,0.0 m10.269058263346446,-41.760836937608886 l-5.020428484302708,-0.9128051789641286 -15.061285452908123,0.4564025894820643 l-4.564025894820643,1.8256103579282572 -0.9128051789641286,2.966616831633418 l2.510214242151354,10.040856968605416 10.953662147569544,22.36372688462115 l3.6512207158565144,18.484304874023604 3.6512207158565144,9.812655673864382 l2.510214242151354,-2.0538116526692893 1.8256103579282572,-4.3358246000796115 l4.564025894820643,-16.65869451609535 -0.6846038842230965,-20.081713937210832 l1.1410064737051608,-9.356253084382319 -0.4564025894820643,-4.3358246000796115 l-2.738415536892386,-5.020428484302708 -3.19481812637445,-2.966616831633418 l-2.2820129474103217,-0.6846038842230965 m-12.322869916015737,1.1410064737051608 l0.0,-1.1410064737051608 -7.530642726454062,-14.148480273943994 l-1.369207768446193,-5.476831073784772 -0.22820129474103215,-5.476831073784772 l3.6512207158565144,2.510214242151354 7.987045315936125,8.44344790541819 l2.2820129474103217,0.9128051789641286 0.9128051789641286,-2.0538116526692893 l0.9128051789641286,-10.269058263346446 0.9128051789641286,-3.19481812637445 l2.2820129474103217,-2.966616831633418 1.369207768446193,-0.4564025894820643 l1.1410064737051608,1.369207768446193 0.22820129474103215,2.738415536892386 l-1.8256103579282572,19.1689087582467 0.0,9.58445437912335 " fill="none" stroke="black" stroke-width="1" /></svg>