<?xml version="1.0" encoding="utf-8" ?>
<svg baseProfile="full" height="108.33585791570988" version="1.1" width="62.17077023968428" xmlns="http://www.w3.org/2000/svg" xmlns:ev="http://www.w3.org/2001/xml-events" xmlns:xlink="http://www.w3.org/1999/xlink"><defs /><rect fill="white" height="108.33585791570988" width="62.17077023968428" x="0" y="0" /><path d="M34.02411261105191,46.067724170696735 m-1.6922547404626769,0.007397322111702964 l-3.1213372486458377,-0.05555622131286575 -2.445206546134672,0.29367915563447683 l-1.5053885231216293,3.9695169397172223 -0.2599255526870939,18.029946104795368 l2.3442437695871825,10.179427613242785 1.9266516509397817,4.843722830824452 l0.9199628934840612,-1.6530445020812046 1.2890131442665076,-6.859008950986946 l4.107182027532031,-12.199639390178435 1.2380828968015762,-10.140640081518 l-0.49069191449503097,-4.5394523924156465 -0.8746245789183443,-1.9447755968716773 m-3.120687349955072,3.4613163081552103 l2.2359338789473564,-14.356794832076098 m-2.2221948391653834,10.997624410799451 l-0.4794238434146894,-3.145980919103839 0.7739118796102208,-2.4595609730233137 l2.4859773679123065,-2.115134723113461 m-2.7318453795315945,9.648854952864044 l1.7970958251805063,-6.77759208970188 2.97218281090286,-6.904260541567604 m-5.8473158207215175,9.906031410788412 l0.055411135212377546,-2.0764627172773173 1.4345451641037017,-4.301705068796716 m-1.6377144324655368,6.769767451101632 l-0.6233357001190056,-4.916931656515922 1.4583813168799986,-5.265650120476016 m-0.20833179562489076,8.362649186544331 l-1.0761496042021723,-2.669468472425965 -0.005113177924300732,-4.78901645616333 m-0.41960418920486214,2.933956674710143 l-1.4303065194727431,-7.4292675905673295 0.37628743161916034,-5.871671235812405 m0.530717636497442,11.997922562124128 l-1.7004804122380768,-8.630397014086007 0.395193746466361,-0.7726799285672326 m2.821099424955358,7.369176282210659 l-1.5068473780024538,-2.344098300870399 -0.3279070445498815,-4.347478625731285 m1.5038517213379137,3.531901588898565 l-0.952948270682998,-0.6240250790568677 -0.08561075982330857,-1.3290317579301705 m0.5348907734116016,2.5740538784528444 l1.2096260521830622,-4.078427303395764 m-0.2640027009934291,6.4558673033216385 l0.44113276956413316,-3.3137155929426014 m0.06639054303636052,4.15509155446012 l1.9444487219682927,-4.5043766005860295 m-1.4147776861315742,1.0133846015761698 l0.5652183211922243,-4.2126571647974576 m-1.7182126383297842,5.469406588196929 l0.42991458606413496,-2.809717870062901 m-1.0613633403362621,6.442669482885177 l0.2223668862403852,-5.760206909099567 m-0.15657845605217469,7.066691645343749 l-1.101637238786994,-3.860918391187643 m-0.6085768511874229,1.431435867195815 l-0.7123333957434665,-4.520948531846339 m-0.45895698877082697,6.542199955808464 l-0.848449340292818,-3.958669501204975 m1.4076055201574214,2.0976501762005375 l-1.0480223593400135,-8.023715336818475 m0.37472170251419534,4.626447591977645 l-0.8391123215218782,-5.849984216744313 m0.0,0.0 " fill="none" stroke="black" stroke-width="1" /></svg>