<?xml version="1.0" encoding="utf-8" ?>
<svg baseProfile="full" height="157.3655606872861" version="1.1" width="107.00548414347784" xmlns="http://www.w3.org/2000/svg" xmlns:ev="http://www.w3.org/2001/xml-events" xmlns:xlink="http://www.w3.org/1999/xlink"><defs /><rect fill="white" height="157.3655606872861" width="107.00548414347784" x="0" y="0" /><path d="M34.276131139624795,63.551000217318986 m0.5613703085547156,2.582061976457054 l0.2835920324658839,22.633513127888563 1.4515604819902308,8.595012368913517 l4.5525319330554295,18.923789633380544 6.0789592097149425,12.585623347317107 l3.2374621029944795,3.4945600160103245 2.467772599282721,-2.4293580303887072 l1.548721434287071,-1.1790727731636257 2.5773428940111995,-3.9919201896643006 l2.371085802647722,-4.827842584082787 2.7589254262169383,-14.503463233926052 l0.11004798655755627,-15.214497241630573 -3.293232193089555,-21.972215211653236 l-2.6267249915257174,-7.886641254903018 -2.5480235066365347,-2.6959109925559748 l-3.24338106599918,0.9966608736031501 -9.340174601070421,1.039921860741229 l-8.165618966766194,-0.7608925509391162 -1.879161257380924,-0.2603791446805391 l-1.4584024565581293,-0.26679762997147555 -1.57894241875756,-1.6861363835332333 l-2.07427618342204,-4.67622216030774 -1.0675657101974325,-8.967866426957224 l0.462710118976778,-8.117677087565065 1.8365859172830612,-5.788308387703962 l2.6694221688347066,-2.869097749493091 2.330941380414289,-0.7484696538324975 l2.9991002175056214,0.5965068248617925 2.335278170315652,2.305368294105893 l1.65369075821505,6.202180758358393 0.24027042380572344,8.621716947285766 l-0.5814039261528597,-11.697608511092326 1.2349379128699263,-3.6312160592777554 l4.900061635543951,-2.9563229889200002 3.605608718910931,0.2099851562577812 l2.299861374112865,3.062013979296141 1.1127172662765854,7.862378450191288 l-0.46685811922583476,7.540868560269366 1.4886829110122373,-4.312742856241048 l2.7161364566119075,-3.8620062091199374 3.3291849667124453,-2.558502019809643 l4.049552724658916,-3.08427950994441 2.8194172007293554,-1.1779912970771778 l2.9235081744477673,0.15477116630738477 1.6075154326350443,2.5949397950030137 l0.5047802257584226,4.607790095299759 -1.4699816076943495,4.262865577964854 l-6.297736605283311,8.129271564217209 4.9154986857390455,-2.5254999974253183 l5.597484320276554,-2.4481472901093024 4.759153955643127,0.5504548634267533 l2.1785558845162427,0.23742328318632294 1.250807400027998,1.5030836997319645 l-0.5804124142456751,4.596245636754003 -4.83814466419013,7.807429712331526 l-4.784597790374172,3.533243129982199 -2.829845968540338,-0.03620413086976054 m-28.95391343849324,14.53163179135009 l10.501789458848908,1.5148851832222987 9.740245932156222,-1.1233963890836378 m-20.765293491360833,11.167608487720356 l15.811216452538332,4.652152197301691 7.367601871115,-0.2728562217505384 m-20.3886450196017,12.55552216198118 l5.352131967442767,0.02662419407319705 10.62151203216224,-2.9671934949957204 m-11.883790812282392,11.567770743424756 l10.536312013363554,1.6358487932555226 4.454472330240071,-0.13166259057002097 m0.0,0.0 " fill="none" stroke="black" stroke-width="1" /></svg>