<?xml version="1.0" encoding="utf-8" ?>
<svg baseProfile="full" height="153.14698522294654" version="1.1" width="86.05580456908308" xmlns="http://www.w3.org/2000/svg" xmlns:ev="http://www.w3.org/2001/xml-events" xmlns:xlink="http://www.w3.org/1999/xlink"><defs /><rect fill="white" height="153.14698522294654" width="86.05580456908308" x="0" y="0" /><path d="M42.11509710557741,63.109616221752376 m-2.510214242151354,-1.369207768446193 l-2.510214242151354,-0.22820129474103215 -2.510214242151354,0.0 l-4.3358246000796115,1.369207768446193 -4.3358246000796115,3.8794220105975468 l-0.9128051789641286,3.6512207158565144 0.0,5.476831073784772 l5.476831073784772,18.256103579282573 3.6512207158565144,33.3173890321907 l1.369207768446193,0.6846038842230965 1.1410064737051608,-1.369207768446193 l5.248629779043739,-9.128051789641287 8.899850494900253,-25.102142421513538 l1.597409063187225,-10.497259558087478 0.22820129474103215,-9.58445437912335 l-0.6846038842230965,-2.510214242151354 -3.423019421115482,-4.792227189561675 l-7.302441431713029,-4.792227189561675 m-1.369207768446193,4.564025894820643 l12.094668621274703,-23.04833076884425 4.107623305338579,-9.812655673864382 l5.020428484302708,-7.074240136971997 m-25.5585450109956,43.814648590278175 l12.322869916015737,-19.39711005298773 9.58445437912335,-21.679123000398057 m-20.994519116174956,34.91479809537792 l4.792227189561675,-10.269058263346446 7.074240136971997,-24.41753853729044 m-13.463876389720896,36.96860974804721 l8.215246610677157,-28.068759253146958 1.8256103579282572,-11.866467326533671 " fill="none" stroke="black" stroke-width="1" /></svg>