<?xml version="1.0" encoding="utf-8" ?>
<svg baseProfile="full" height="140.7610498059803" version="1.1" width="87.66908372827739" xmlns="http://www.w3.org/2000/svg" xmlns:ev="http://www.w3.org/2001/xml-events" xmlns:xlink="http://www.w3.org/1999/xlink"><defs /><rect fill="white" height="140.7610498059803" width="87.66908372827739" x="0" y="0" /><path d="M30.26840807374716,61.69407187864837 m1.474570816111526,13.375281700106486 l4.609727999365034,15.44504091105137 8.654451209927384,20.148444936851348 l2.3640232959932894,4.588730801458492 0.9060619876879574,0.5094795778642308 l4.494384349835865,-12.740953151262412 3.0366458858225407,-18.194125941202728 l4.203662734159823,-10.171756116494022 2.1036119682894183,-7.545056357380037 l0.10857589767691407,-5.629209515623385 -0.8971752966708962,-1.4198683941439953 l-4.485397837870427,-0.5944659193256039 -10.582398170022005,0.11531769532994132 l-12.968045144439774,0.23800874702451363 -1.511982600672502,2.2200989889231733 m10.000374517279326,-2.4849874667441387 l0.11466592848770829,-2.220581426177083 -1.5827468018968311,-3.396463165968201 l-5.702433484091199,-8.408269402369735 -4.233963669266291,-4.382306452782314 l-5.375021659454024,-0.581545823054391 5.060530518668731,2.928714442494598 l6.144245437881259,8.763484710913431 2.4609213824992726,7.785414683482312 l0.7736168720820913,-12.51220758693128 3.768581390520549,-11.719789060162912 l2.766120765878195,-5.3866139274608305 4.122495454942062,-5.423889367065202 l-5.009106811100836,12.576556876926848 -1.247978328486975,15.81668154053594 l3.4953717293301887,-1.6172894540213034 6.102982765027405,-10.003570348887271 l3.7632496031969884,-3.2718124735146095 5.468052947838462,0.8674751336023173 l-10.260512472011998,5.931514822080302 -4.126091789436941,4.674584432396164 l-3.4217255421582076,8.154235555531088 -0.691002209173685,4.399021740723861 l4.487011097209443,-4.089272537028738 m0.0,0.0 " fill="none" stroke="black" stroke-width="1" /></svg>