<?xml version="1.0" encoding="utf-8" ?>
<svg baseProfile="full" height="153.77906345800076" version="1.1" width="89.6355963443957" xmlns="http://www.w3.org/2000/svg" xmlns:ev="http://www.w3.org/2001/xml-events" xmlns:xlink="http://www.w3.org/1999/xlink"><defs /><rect fill="white" height="153.77906345800076" width="89.6355963443957" x="0" y="0" /><path d="M38.28887143718349,65.64240638718564 m-0.1380472129151515,5.7823593797002815 l3.9493429789702605,25.69167056993426 1.7309011509933951,28.3869982849167 l0.8325246542455247,2.7592382239644198 1.0941331658186892,0.5163906122994507 l1.9345466028980145,-4.048937092916809 2.6039641365132216,-14.206307912370457 l5.948652564901519,-23.245928517789515 2.630603464840279,-18.62787790952802 l1.9362244178794255,-2.987455638172683 -0.9303680393195808,0.10485639344840245 l-14.114680711958977,-0.2088327727242617 -3.7162822993376388,1.1600388080935289 l-3.64160972700447,-1.9276447712667857 m11.080211973686408,-0.18599749729809448 l-1.8352492176493855,-10.181960666075454 -5.193075080468756,-9.941072125664439 l-4.291766289164816,-4.151646846602257 -5.629666108005097,-2.348605630779345 l-4.668898805103839,0.003010454048768263 -2.129750031496628,2.5448888948338744 l-0.7405830255058828,3.504425148010639 0.6288163605933145,4.215281565691071 l5.011807640687358,4.286781953411898 9.382175120981243,0.3914012806959499 l5.092570380519303,-1.6584263943293502 2.228932450545002,-3.8237402727274885 l0.14553837729404245,-1.7720942468444083 -1.6648430167697854,-3.646248058598871 l-2.903091670373759,-0.5472202787877192 -3.70945629782968,0.007162807394107962 l-3.7920928218105265,-1.2144568176950143 -2.388079321965852,-2.593947964389319 l-1.206983279374602,-3.9186464932468565 0.32562980501896904,-4.657223875688714 l2.210815064414453,-2.23745273263788 6.585383155327746,2.124830902895191 l3.8746995986782133,5.784043811780606 1.5207751298499483,6.0345954889190745 l-0.11388565557460303,1.9751155235641782 -1.1579337354517205,3.390711112321233 l1.183215622578185,-5.933935513481932 4.947320966867978,-12.056912321951176 l3.3806121859344804,-2.2154491352076833 4.924409121859344,-0.9681861163347473 l2.3411531994532497,0.5433692975404367 1.933711533941143,1.8572690211407932 l0.8543964290022533,1.6769436801012005 -0.28922039443563724,3.6958273895101716 l-1.5175342779705552,4.111181417634175 -2.7429981963588204,4.8651454502370255 l-4.074220784498712,5.779211693723673 -6.137258315107657,7.99429015281004 l-2.379441518063231,2.287143950007978 0.12978292086104173,-2.44220650738392 m0.0,0.0 " fill="none" stroke="black" stroke-width="1" /></svg>