<?xml version="1.0" encoding="utf-8" ?>
<svg baseProfile="full" height="139.2243306931328" version="1.1" width="82.88105005270822" xmlns="http://www.w3.org/2000/svg" xmlns:ev="http://www.w3.org/2001/xml-events" xmlns:xlink="http://www.w3.org/1999/xlink"><defs /><rect fill="white" height="139.2243306931328" width="82.88105005270822" x="0" y="0" /><path d="M28.748845784825736,49.53817341846862 m2.6285967412050915,10.263649491445083 l3.2585019220916256,28.119325727374544 5.195694116906575,16.892752262846606 l1.6438950007248376,5.341614401416037 1.7342433946564386,2.4579575817130754 l2.2539106793945294,1.610857809868823 2.2828971403832146,-0.7325982831821617 l2.2353113724481095,-4.614697358405207 2.723365069692254,-5.58158248292878 l1.4149588848739314,-4.6486922026241935 2.669744664438972,-14.239235369544776 l1.0910852810669072,-12.075677564885291 -0.40747188009140306,-19.463037457990463 l-0.7214023944598571,-2.5447873678959856 -2.184846175367227,-1.2068054691044778 l-12.505774783334989,0.2726304812298071 -12.734126646660926,0.5529852372526937 l-2.9289587612834533,1.0730965422055456 -1.3984694115103669,0.7608393446640996 m11.313478860116644,-4.300628740723282 l-1.5794060000307955,-1.3372921444702672 -2.1546586039041165,-5.526975720159572 l-1.5243052864632827,-7.499202821408586 -0.46735430318961435,-4.866134339323473 l0.7252471416837544,-1.4264392206910592 1.8066110947228258,-0.25695088405836386 l2.306259118537157,-0.4250133534430589 5.78069954763023,-1.138131517645935 l1.6209525951937835,3.5499430924607354 0.15795070958847524,3.9070946619088245 l2.7501250271801334,-2.5262178513734184 2.3101578580135995,-1.1462930681554364 l2.7073605976416353,-0.4672267985757184 1.34082429754066,2.0108124853717135 l0.4294171977240795,3.4236255184755193 -0.9471753876118713,7.337846687937811 l-2.252234178248667,6.211457855405659 -4.910098503856898,8.38570834537038 m-10.831490028688208,4.937237780481705 l7.389328606210304,0.16168918228223297 3.291456684758516,1.2157351623068353 m-10.534700468670419,11.73887052900017 l5.11135871966313,-1.1950515864131606 m-6.326991812463134,14.640281408842482 l6.484268917521035,1.1541599762054588 m-3.5683922715726903,7.124354533163244 l3.8497448860587813,0.052939361228989956 m0.0,0.0 " fill="none" stroke="black" stroke-width="1" /></svg>