<?xml version="1.0" encoding="utf-8" ?>
<svg baseProfile="full" height="94.7274537692423" version="1.1" width="114.80916770645314" xmlns="http://www.w3.org/2000/svg" xmlns:ev="http://www.w3.org/2001/xml-events" xmlns:xlink="http://www.w3.org/1999/xlink"><defs /><rect fill="white" height="94.7274537692423" width="114.80916770645314" x="0" y="0" /><path d="M25,69.7274537692423 m4.3358246000796115,-5.248629779043739 l5.020428484302708,-4.3358246000796115 6.1614349580078684,-3.6512207158565144 l14.833084158167091,-11.410064737051608 m-30.350772200557277,24.189337242549406 l2.510214242151354,0.22820129474103215 7.987045315936125,-3.8794220105975468 l9.356253084382319,-3.19481812637445 5.476831073784772,-3.19481812637445 l14.148480273943994,-5.248629779043739 -0.4564025894820643,-2.0538116526692893 m-9.58445437912335,-8.671649200159223 l2.738415536892386,0.0 5.476831073784772,-2.0538116526692893 l3.6512207158565144,0.4564025894820643 2.0538116526692893,3.423019421115482 l0.6846038842230965,4.792227189561675 -2.510214242151354,2.2820129474103217 l-2.966616831633418,1.369207768446193 m2.966616831633418,-12.7792725054978 l9.812655673864382,-15.745889337131219 0.0,8.44344790541819 l7.074240136971997,-3.19481812637445 -2.966616831633418,6.1614349580078684 l9.356253084382319,2.966616831633418 -1.1410064737051608,1.369207768446193 l-7.074240136971997,2.738415536892386 -12.551071210756769,3.6512207158565144 m-11.410064737051608,-2.738415536892386 l1.1410064737051608,0.6846038842230965 m4.792227189561675,-3.423019421115482 l0.9128051789641286,2.738415536892386 m-23.732934653067343,7.530642726454062 l2.738415536892386,2.0538116526692893 m8.215246610677157,-4.564025894820643 l1.597409063187225,2.0538116526692893 m-7.987045315936125,2.0538116526692893 l-0.6846038842230965,2.738415536892386 m-5.933233663266836,1.8256103579282572 l1.8256103579282572,2.966616831633418 m-5.476831073784772,0.6846038842230965 l-0.4564025894820643,0.4564025894820643 m18.712506168764637,-15.061285452908123 l2.510214242151354,5.248629779043739 0.22820129474103215,2.510214242151354 m5.020428484302708,-10.269058263346446 l1.369207768446193,1.1410064737051608 2.0538116526692893,4.792227189561675 " fill="none" stroke="black" stroke-width="1" /></svg>