<?xml version="1.0" encoding="utf-8" ?>
<svg baseProfile="full" height="126.54283560899974" version="1.1" width="84.32289869756983" xmlns="http://www.w3.org/2000/svg" xmlns:ev="http://www.w3.org/2001/xml-events" xmlns:xlink="http://www.w3.org/1999/xlink"><defs /><rect fill="white" height="126.54283560899974" width="84.32289869756983" x="0" y="0" /><path d="M29.87164758291906,50.2015692492256 m2.9954418285181204,13.947145652435449 l1.7615142310566168,16.314754942665665 5.157300841053194,21.079365764673028 l2.832907875151738,-10.010474070019352 2.4654095939855463,-17.446057051240388 l4.185267634345062,-17.86708460077241 0.8437131886957085,-12.169467836273489 l-1.1631955589657172,1.436632517280223 -8.247748353758299,0.35437569065976876 l-11.547572528053434,4.8699352102018745 -3.488250839080721,-1.6050225739026747 l-0.6664354958668725,-2.8215747049992355 0.1438725086745716,-2.8443139585349453 l1.457580428942447,-2.571129082392245 3.623095745018473,-2.41268944691382 l2.6432769866073405,-2.399952802386122 2.644431489198199,0.10086830363515542 l1.4576883508845508,2.3701064622826875 3.6014803036529006,-6.924392432331965 l3.2059276517604722,-5.051257220384821 2.9372775201012056,-1.2673679241901914 l3.6684305763987104,-0.2839700887177829 0.9039549212700044,2.199700649823295 l0.06523991478635398,2.710197384010047 3.413110332680414,-1.1813820118862688 l2.197327269686814,-0.3552364049575713 2.15414563715559,0.8116407161355216 l0.20605906075179373,4.604815376593423 -0.9887392857734364,1.8193570248681838 l-4.337452408048213,4.864685857000175 -5.646214156550002,2.8307418251763816 m-13.863194597355818,17.60752306466054 l6.9528006676781,-2.239915247374092 7.498930962578827,-2.4903296638960764 m-11.672617234421276,8.757407742228088 l10.163797213087454,1.1968730916814052 m-9.561808370673278,6.278898103257209 l5.92596281238453,0.1755742494927566 m-5.258213707687913,2.2750336984622197 l3.8448158118632407,0.38185027308146785 m-2.7966148854738404,2.3849405620163067 l3.1228992337758856,0.8939882671116045 m-1.4782978705043497,3.3229534099542737 l2.530434222221479,-1.6126327555365016 m0.0,0.0 " fill="none" stroke="black" stroke-width="1" /></svg>