<?xml version="1.0" encoding="utf-8" ?>
<svg baseProfile="full" height="171.40308880222912" version="1.1" width="171.85949139171117" xmlns="http://www.w3.org/2000/svg" xmlns:ev="http://www.w3.org/2001/xml-events" xmlns:xlink="http://www.w3.org/1999/xlink"><defs /><rect fill="white" height="171.40308880222912" width="171.85949139171117" x="0" y="0" /><path d="M65.84803175864477,56.948181263744495 m-1.8256103579282572,0.22820129474103215 l-2.2820129474103217,1.597409063187225 -3.6512207158565144,3.8794220105975468 l-11.410064737051608,14.833084158167091 -9.128051789641287,16.430493221354315 l-7.302441431713029,20.766317821433926 -5.248629779043739,31.71997996900347 l6.1614349580078684,-1.8256103579282572 8.671649200159223,-6.3896362527489 l4.3358246000796115,-4.3358246000796115 8.215246610677157,-10.497259558087478 l3.6512207158565144,-7.7588440211950935 12.551071210756769,-22.36372688462115 l5.476831073784772,-13.920278979202962 2.510214242151354,-12.094668621274703 l-0.9128051789641286,-2.510214242151354 -4.3358246000796115,-5.020428484302708 l-4.107623305338579,-2.738415536892386 m0.6846038842230965,1.369207768446193 l-3.19481812637445,-5.705032368525804 -2.0538116526692893,-6.3896362527489 l-0.6846038842230965,-7.302441431713029 0.4564025894820643,-4.792227189561675 l1.597409063187225,1.369207768446193 1.8256103579282572,10.269058263346446 l3.19481812637445,-12.322869916015737 1.1410064737051608,-0.9128051789641286 l1.8256103579282572,2.2820129474103217 1.369207768446193,5.248629779043739 l1.369207768446193,-1.597409063187225 2.510214242151354,-9.128051789641287 l2.966616831633418,-4.3358246000796115 1.1410064737051608,1.597409063187225 l-1.8256103579282572,12.322869916015737 2.0538116526692893,-4.564025894820643 l1.8256103579282572,-1.597409063187225 2.966616831633418,-4.564025894820643 l3.6512207158565144,-1.597409063187225 0.4564025894820643,4.107623305338579 l-4.792227189561675,7.302441431713029 7.074240136971997,-1.369207768446193 l6.846038842230964,-2.966616831633418 0.9128051789641286,2.0538116526692893 l-1.8256103579282572,4.564025894820643 -7.074240136971997,6.846038842230964 l-2.510214242151354,3.6512207158565144 2.0538116526692893,-0.22820129474103215 l3.8794220105975468,-2.2820129474103217 7.987045315936125,-2.966616831633418 l-16.65869451609535,10.725460852828512 7.7588440211950935,-2.738415536892386 l6.3896362527489,0.0 1.1410064737051608,1.597409063187225 l-0.4564025894820643,2.0538116526692893 -1.597409063187225,2.2820129474103217 l-8.671649200159223,6.617837547489933 -3.8794220105975468,1.369207768446193 l-0.4564025894820643,-3.423019421115482 -1.8256103579282572,-1.1410064737051608 l-7.7588440211950935,0.22820129474103215 -3.8794220105975468,1.369207768446193 m73.70901820135339,13.692077684461928 l-4.3358246000796115,-3.8794220105975468 -4.107623305338579,-0.9128051789641286 l-4.792227189561675,0.22820129474103215 -7.530642726454062,4.107623305338579 l-4.107623305338579,4.3358246000796115 -5.933233663266836,9.58445437912335 " fill="none" stroke="black" stroke-width="1" /></svg>