<?xml version="1.0" encoding="utf-8" ?>
<svg baseProfile="full" height="147.70044166899558" version="1.1" width="80.61842173498464" xmlns="http://www.w3.org/2000/svg" xmlns:ev="http://www.w3.org/2001/xml-events" xmlns:xlink="http://www.w3.org/1999/xlink"><defs /><rect fill="white" height="147.70044166899558" width="80.61842173498464" x="0" y="0" /><path d="M25.933529320959618,58.5286322748568 m0.5317330971619206,12.989485405974145 l1.853566031851483,12.397430467675528 4.558882474652062,15.68107188706183 l5.905548163828277,16.89429450367705 2.457301220429918,6.0870572420009745 l1.0522408184526928,0.12246988774926824 3.224906393193343,-8.355705534597297 l4.005855812087238,-16.009226797948855 2.5734852774253056,-23.360060265652375 l-0.32209678679718556,-15.11382876532731 -0.9384356784103518,-5.41523635934617 l-1.9511130082212724,-1.8198778512311569 -2.8608953152618346,-3.3760058763892125 l-3.2041819299789718,-2.675930121851844 -3.3996314919093087,-1.4506475334707725 l-5.465902885973538,0.8405887310914121 -5.888785819513724,5.1623110434929 l-2.290089941056394,2.599067171556447 -0.775915752919274,2.950095838687005 m11.61243218573633,-10.067290218062364 l-3.3325231238062627,-8.94486986370317 -6.633537453434986,-12.66382526624282 l5.563685174527397,4.059021554873428 9.037627140713267,9.164259163431504 l-0.342541552264988,-7.769448091348066 1.1770282958702039,-4.210623683129948 l1.2078443998785198,-0.8926797807781006 2.6646174494511485,9.40864205697717 l5.266748331694251,-5.6419462440657675 3.7123110377567348,-3.035113648254588 l0.6847298488630179,0.2815013337574219 -0.7148389499662803,4.3420686305575975 l-4.491400931122895,11.988050760872381 4.351809645517763,-2.8893389315720435 m0.0,0.0 " fill="none" stroke="black" stroke-width="1" /></svg>