<?xml version="1.0" encoding="utf-8" ?>
<svg baseProfile="full" height="144.9568849808237" version="1.1" width="99.70067920834515" xmlns="http://www.w3.org/2000/svg" xmlns:ev="http://www.w3.org/2001/xml-events" xmlns:xlink="http://www.w3.org/1999/xlink"><defs /><rect fill="white" height="144.9568849808237" width="99.70067920834515" x="0" y="0" /><path d="M43.45930195106804,50.913649002335426 m-1.4029850199889042,7.32527193610455 l-6.416330145144793,18.9165349470617 -2.597896661800372,14.222333708432897 l-6.741434534769297,21.781935683031158 -1.3006555893646732,6.797159703857971 l4.65996612319588,-7.8146036377789505 10.39854696765863,-14.902399981726774 l10.017852341390887,-20.754115324669566 9.576799788724907,-16.79094643602419 l2.0959465437984277,-4.591418224286589 -0.32226370088827855,-1.7077672157993233 l-2.8495783830794053,0.6934757134430852 -13.09816254462001,-0.913864622771503 l-1.9432199594787514,-3.638100803151932 -0.5061035605165229,-8.31040999631428 l0.8657027428330866,-5.53979862503393 2.1660862771105447,-4.324088657763294 l3.471416360731282,-1.142969442336046 1.1539837630458025,1.7362561688221068 l0.8078769211060657,6.051246218433921 4.907559301665398,-7.476445009010601 l2.189473451289615,-4.483201300560474 1.338928211260646,-1.0477338042953501 l0.7606683039422343,3.939631500837347 -0.6619574706761444,4.52261516392441 l5.530666603056693,-6.664907417600354 2.7519692051343156,0.11968818030699407 l0.49990457693176793,3.041542574055931 -0.5762040275521776,4.963239188290844 l4.111284649555465,-0.5975144174346247 1.355197961605509,1.178473015187756 l0.9582189510987924,1.9200231122637885 0.04011981002048055,2.9112111219443775 l-3.9836504532879533,8.14672969820957 2.524855664655299,0.357650822763549 l-0.9400715531134187,4.365183833267366 -3.106935445933754,5.565547827977739 l-4.098216902100351,5.988147827881722 -3.0501825705843313,1.8064542924400464 m-15.029715028699126,0.6232722282833458 l9.864688262142037,5.654672485151045 m-12.699814285043622,5.8088217052453555 l5.43841177541188,7.021377500159677 1.8268758920523398,2.7905847515912687 m-12.463273729103635,6.9309890877247 l1.9653648609002774,3.66788158820931 3.2762667873612537,4.128577162606964 m0.0,0.0 " fill="none" stroke="black" stroke-width="1" /></svg>