<?xml version="1.0" encoding="utf-8" ?>
<svg baseProfile="full" height="140.7314612076755" version="1.1" width="97.14643514683064" xmlns="http://www.w3.org/2000/svg" xmlns:ev="http://www.w3.org/2001/xml-events" xmlns:xlink="http://www.w3.org/1999/xlink"><defs /><rect fill="white" height="140.7314612076755" width="97.14643514683064" x="0" y="0" /><path d="M37.72627967077195,67.31798769117762 m9.191746585315173,14.596172423398844 l6.756055095997257,12.974284873906337 8.220419047941569,8.740924405070336 l3.730275586619677,8.81771988106447 4.283313177856527,3.28437193305788 l1.0602653968196372,-0.38853740990151264 0.7600754716927316,-2.979788745692661 l0.4180051138161168,-16.22748518842558 -2.4658333826545653,-11.188760794735693 l-5.8783388371406815,-15.555017055659787 -1.4456038302134457,-6.607209321088233 l-2.3417302527335013,-6.504643972058679 -2.558535139816154,-5.747613739819282 l-2.1000437861098056,1.2136176431659207 -12.133147172670098,7.525544946168431 l-6.040699950206688,4.551962979590265 -1.1048070773162786,4.349311243482899 l0.2881335801550343,4.324638213949366 m6.551085944438591,-13.555907055666525 l-1.8859946239567362,-1.046872792717043 -3.318456626833959,-7.297087099088273 l-3.354540172994355,-1.8251842652396866 -8.124469665708023,-2.271291661308719 l-1.2334541530699674,-0.6473298542636847 0.12451027004607408,-1.2419798731595961 l2.4033205723926843,-0.5986634668801283 2.7865814134264055,-0.4010184953790714 l4.969540996888966,-0.6846779439620739 5.4268865899159096,-0.810290615839547 l2.4332754961001015,3.412090266169238 0.7531466169944219,-1.461403624246254 l-0.9062505941334607,-6.236468426151767 0.768386421332752,-4.357205522270762 l1.7742780904788205,-2.2519400514970678 2.157446998938533,-3.355447869621905 l3.9125085943733393,-2.8668016555280933 1.2434485804610407,0.8851831070122786 l0.5003130117661876,1.2966753164422866 1.045241996654124,6.6238851656048565 l0.0007557861542565464,6.97426230976241 -0.7650228806889394,3.562417789914547 l-4.362961412115101,7.730036195788546 -0.7618529304149796,3.406833207773177 l0.04428779395430498,3.5755365856612906 1.1105190565490268,0.4576980688668206 m-10.384879936422955,16.56387583739115 l7.67375869373724,-1.1229674414005832 7.675823188080632,-2.9459813898147456 m-7.550270777179083,12.763504538817715 l11.772715215276785,-5.544286938789479 m-5.272441816441258,14.387963197316704 l6.606506751857597,-3.498172967158573 m0.0,0.0 " fill="none" stroke="black" stroke-width="1" /></svg>