<?xml version="1.0" encoding="utf-8" ?>
<svg baseProfile="full" height="144.70353731752834" version="1.1" width="83.3173890321907" xmlns="http://www.w3.org/2000/svg" xmlns:ev="http://www.w3.org/2001/xml-events" xmlns:xlink="http://www.w3.org/1999/xlink"><defs /><rect fill="white" height="144.70353731752834" width="83.3173890321907" x="0" y="0" /><path d="M25,60.37120068485997 m0.0,4.564025894820643 l1.8256103579282572,8.44344790541819 7.074240136971997,18.94070746350567 l13.235675094979866,24.873941126772507 3.6512207158565144,2.510214242151354 l0.6846038842230965,-1.1410064737051608 0.22820129474103215,-8.44344790541819 l1.369207768446193,-4.107623305338579 3.423019421115482,-19.1689087582467 l1.8256103579282572,-20.309915231951862 -0.4564025894820643,-5.476831073784772 l-4.792227189561675,-2.0538116526692893 -3.6512207158565144,-0.6846038842230965 l-13.007473800238833,-0.9128051789641286 -9.356253084382319,0.0 l-1.1410064737051608,0.6846038842230965 m4.107623305338579,-9.58445437912335 l0.9128051789641286,9.128051789641287 1.1410064737051608,-2.966616831633418 l-2.0538116526692893,-29.43796702159315 0.4564025894820643,7.074240136971997 l6.3896362527489,30.578973495298307 1.1410064737051608,-0.4564025894820643 l0.9128051789641286,-4.107623305338579 -1.1410064737051608,-20.538116526692892 l2.0538116526692893,7.987045315936125 -3.423019421115482,-14.148480273943994 l0.9128051789641286,6.3896362527489 3.8794220105975468,12.551071210756769 l0.4564025894820643,-10.040856968605416 -0.9128051789641286,-2.2820129474103217 l5.933233663266836,12.7792725054978 -1.369207768446193,-23.961135947808376 l2.0538116526692893,7.7588440211950935 1.8256103579282572,12.094668621274703 l0.6846038842230965,-6.846038842230964 1.1410064737051608,9.128051789641287 l0.0,6.1614349580078684 -2.2820129474103217,-6.1614349580078684 l-0.4564025894820643,6.617837547489933 -1.369207768446193,0.6846038842230965 l-2.966616831633418,-4.3358246000796115 -2.510214242151354,-6.1614349580078684 l0.4564025894820643,2.738415536892386 -2.2820129474103217,-8.215246610677157 l-5.705032368525804,-15.517688042390187 1.369207768446193,5.933233663266836 l0.4564025894820643,7.530642726454062 " fill="none" stroke="black" stroke-width="1" /></svg>