<?xml version="1.0" encoding="utf-8" ?>
<svg baseProfile="full" height="142.47294113213408" version="1.1" width="91.19237727317554" xmlns="http://www.w3.org/2000/svg" xmlns:ev="http://www.w3.org/2001/xml-events" xmlns:xlink="http://www.w3.org/1999/xlink"><defs /><rect fill="white" height="142.47294113213408" width="91.19237727317554" x="0" y="0" /><path d="M36.17300082117213,117.47294113213408 m-2.539840893505346,-4.383704799061174 l-4.469506960244889,-11.741844129073401 -3.1233624842833754,-16.951032427946142 l-1.040290483138518,-14.594248864456935 0.8955949091315105,-1.4286839417406005 l6.0192347141362985,-5.260491688564285 2.1737682233158795,-1.119614240605892 l7.157646207602479,-2.2300266848276817 6.507289867017279,-0.5694848933312108 l2.651082970378249,0.6282917837546346 3.8400110996045624,1.7606810669413147 l3.2210995604597685,4.122248793649054 1.9674220964492661,6.822024833658726 l0.2528644279594727,7.859944855203023 -3.555761607310531,12.257772339883939 l-8.98653471014482,15.359037120967143 -6.232950668018547,4.944096731977554 l-2.8683639897429662,1.8281705228273715 m-2.3453085772295226,-56.372904696694754 l-4.17918284800833,-6.260819093045571 -1.8763222750756785,-7.02644069492513 l-0.912954731674678,-8.3421472584346 0.39198569733489275,-8.261033662520992 l1.4716986491821353,-2.586763766176626 2.1347161266962744,-0.8466059370794007 l3.058662535649763,-0.07936240251243731 2.1588371149449492,0.23684397559337975 l1.9828735754909828,1.1521176515079272 3.0532388824685253,4.16056754555793 l1.1173071520160198,5.139136063200282 1.5233243494592021,-8.578955048416072 l1.7305016965987186,1.3376393326141223 2.5565372525083667,5.881280930343773 l2.3868208623641216,-5.000099659487203 1.7865112075813228,-2.0063445060171583 l2.307412895140346,1.2379952227553939 0.8718244464173153,2.728274690836837 l0.013800564423718234,7.700453733583941 3.708011772731803,-1.633267947808666 l2.215642231751912,-1.470840111639626 2.3919946713488276,-1.0802355933322014 l0.6020409202166489,3.433143166952447 -3.313959997850348,3.9770607816780816 l-9.697834104918687,8.722235499344427 -3.200089241973212,3.9255224933967137 l-1.1029589961543191,4.186449003217657 m-15.683903749302212,17.52613911592413 l11.197589647926648,2.035047706865559 11.01244102792745,1.2218801346604673 m-20.51578232473344,12.426325278956964 l13.373922741423085,-0.5832110370524013 2.3144529620501744,0.49654229221834306 m-13.28946396959274,11.378386719693218 l6.474740236666158,2.1945372718897924 m-5.927314417796555,6.389284441103495 l4.709319195904162,1.5210483106457144 m0.0,0.0 " fill="none" stroke="black" stroke-width="1" /></svg>