<?xml version="1.0" encoding="utf-8" ?>
<svg baseProfile="full" height="84.18255839498293" version="1.1" width="149.60090290951925" xmlns="http://www.w3.org/2000/svg" xmlns:ev="http://www.w3.org/2001/xml-events" xmlns:xlink="http://www.w3.org/1999/xlink"><defs /><rect fill="white" height="84.18255839498293" width="149.60090290951925" x="0" y="0" /><path d="M58.20030096983975,59.182558394982934 m0.0,-5.8935445508591275 l1.9645148502863758,-10.215477221489154 m13.555152466975994,15.716118802291007 l-0.7858059401145503,-5.500641580801853 0.7858059401145503,-6.482899005945041 m13.948055437033268,8.05451088617414 l-0.9822574251431879,-6.8758019760023155 2.357417820343651,-5.107738610744577 m9.036768311317328,12.179992071775532 l1.3751603952004632,-7.661607916116866 1.1787089101718256,-2.7503207904009264 m-35.16481582012613,0.0 l25.735144538751523,0.9822574251431879 9.036768311317328,-1.5716118802291006 l7.26870494605959,-3.143223760458201 2.1609663353150133,-3.7325782155441143 l-0.39290297005727515,-2.357417820343651 -1.1787089101718256,-1.3751603952004632 l-8.840316826288692,-3.7325782155441143 -8.643865341260053,-1.5716118802291006 l-6.482899005945041,0.39290297005727515 -14.144506922061908,3.143223760458201 l-5.69709306583049,3.143223760458201 -1.5716118802291006,1.7680633652577384 l-0.19645148502863757,7.072253461030954 0.7858059401145503,0.7858059401145503 l3.536126730515477,1.3751603952004632 10.215477221489154,1.1787089101718256 l9.82257425143188,-1.5716118802291006 m32.61094651475384,-11.39418613166098 l-4.3219326706300265,0.19645148502863757 -3.7325782155441143,1.5716118802291006 l-0.5893544550859128,1.1787089101718256 0.0,1.9645148502863758 l1.7680633652577384,2.7503207904009264 2.9467722754295638,-0.39290297005727515 l5.107738610744577,-1.9645148502863758 1.9645148502863758,-2.357417820343651 l0.39290297005727515,-1.7680633652577384 -5.500641580801853,0.39290297005727515 m-55.20286729304716,4.3219326706300265 l-14.73386137714782,1.1787089101718256 -13.948055437033268,3.9290297005727517 l-7.072253461030954,4.125481185601389 -1.5716118802291006,3.143223760458201 m39.29029700572752,-17.484182167548745 l-11.39418613166098,2.357417820343651 -13.751603952004631,3.7325782155441143 l-4.714835640687302,1.9645148502863758 -4.125481185601389,3.7325782155441143 l-1.3751603952004632,6.8758019760023155 m87.22445935271509,-16.10902177234828 l1.5716118802291006,0.0 m-2.357417820343651,-2.1609663353150133 l-3.143223760458201,-4.518384155658664 -0.19645148502863757,-2.1609663353150133 l0.5893544550859128,-3.536126730515477 0.9822574251431879,0.0 l0.9822574251431879,1.1787089101718256 4.3219326706300265,6.286447520916402 m2.357417820343651,0.39290297005727515 l1.5716118802291006,-7.465156431088229 0.9822574251431879,0.7858059401145503 l0.7858059401145503,4.3219326706300265 -0.7858059401145503,5.500641580801853 m-7.26870494605959,5.107738610744577 l4.3219326706300265,-0.39290297005727515 -7.26870494605959,0.9822574251431879 l1.9645148502863758,0.39290297005727515 " fill="none" stroke="black" stroke-width="1" /></svg>