<?xml version="1.0" encoding="utf-8" ?>
<svg baseProfile="full" height="105.9886732331617" version="1.1" width="102.45254650264623" xmlns="http://www.w3.org/2000/svg" xmlns:ev="http://www.w3.org/2001/xml-events" xmlns:xlink="http://www.w3.org/1999/xlink"><defs /><rect fill="white" height="105.9886732331617" width="102.45254650264623" x="0" y="0" /><path d="M59.96836433509749,37.37644355680416 m-8.250962371202778,-0.39290297005727515 l-2.357417820343651,0.5893544550859128 -3.9290297005727517,2.357417820343651 l-2.5538693053722885,3.143223760458201 -0.5893544550859128,1.9645148502863758 l-0.39290297005727515,6.679350490973679 0.7858059401145503,2.7503207904009264 l2.357417820343651,3.536126730515477 2.5538693053722885,2.357417820343651 l7.858059401145503,1.5716118802291006 7.26870494605959,-0.5893544550859128 l3.3396752454868395,-1.9645148502863758 1.3751603952004632,-1.5716118802291006 l2.1609663353150133,-7.072253461030954 0.19645148502863757,-6.482899005945041 l-0.39290297005727515,-1.7680633652577384 -2.5538693053722885,-4.125481185601389 l-4.125481185601389,-2.7503207904009264 -5.8935445508591275,-0.19645148502863757 l-4.125481185601389,1.7680633652577384 m10.019025736460518,-1.5716118802291006 l2.7503207904009264,-4.125481185601389 3.536126730515477,-2.9467722754295638 l5.500641580801853,-3.536126730515477 0.9822574251431879,0.0 l0.19645148502863757,6.089996035887766 -0.5893544550859128,3.143223760458201 l-2.7503207904009264,6.8758019760023155 -2.9467722754295638,3.536126730515477 m-25.735144538751523,-5.8935445508591275 l-5.304190095773215,-2.9467722754295638 -5.500641580801853,-0.9822574251431879 l-2.5538693053722885,0.19645148502863757 -2.5538693053722885,1.1787089101718256 l-2.357417820343651,1.5716118802291006 -0.39290297005727515,1.1787089101718256 l11.983540586746894,9.429671281374604 3.3396752454868395,4.125481185601389 m10.019025736460518,-4.91128712571594 l-0.19645148502863757,0.0 m11.197734646632341,-3.143223760458201 l-0.19645148502863757,0.7858059401145503 m-5.304190095773215,6.8758019760023155 l4.518384155658664,-0.39290297005727515 m-5.69709306583049,-1.1787089101718256 l3.143223760458201,5.107738610744577 m2.9467722754295638,-5.8935445508591275 l-3.143223760458201,5.107738610744577 m0.19645148502863757,7.465156431088229 l-2.7503207904009264,0.5893544550859128 -0.7858059401145503,1.3751603952004632 l-0.7858059401145503,8.250962371202778 0.5893544550859128,2.357417820343651 l5.8935445508591275,5.107738610744577 6.286447520916402,0.9822574251431879 l3.143223760458201,-1.5716118802291006 1.9645148502863758,-3.3396752454868395 l0.39290297005727515,-4.714835640687302 -3.536126730515477,-7.465156431088229 l-2.1609663353150133,-3.536126730515477 -2.5538693053722885,-2.5538693053722885 l-3.143223760458201,-1.1787089101718256 m3.9290297005727517,-5.8935445508591275 l0.7858059401145503,-2.9467722754295638 2.7503207904009264,-4.125481185601389 m-1.1787089101718256,7.26870494605959 l5.69709306583049,-2.357417820343651 4.125481185601389,-3.143223760458201 m-8.447413856231417,8.05451088617414 l4.91128712571594,-0.19645148502863757 4.518384155658664,0.9822574251431879 m-27.6996593890379,4.518384155658664 l-7.465156431088229,1.5716118802291006 -1.1787089101718256,0.5893544550859128 l-1.9645148502863758,2.9467722754295638 m16.501924742405556,-5.500641580801853 l-3.536126730515477,2.357417820343651 -4.714835640687302,6.286447520916402 l-1.7680633652577384,5.500641580801853 m2.7503207904009264,-20.038051472921037 l-8.840316826288692,3.143223760458201 -3.9290297005727517,3.3396752454868395 l-0.39290297005727515,0.9822574251431879 " fill="none" stroke="black" stroke-width="1" /></svg>