<?xml version="1.0" encoding="utf-8" ?>
<svg baseProfile="full" height="133.29542965214233" version="1.1" width="108.73899402356263" xmlns="http://www.w3.org/2000/svg" xmlns:ev="http://www.w3.org/2001/xml-events" xmlns:xlink="http://www.w3.org/1999/xlink"><defs /><rect fill="white" height="133.29542965214233" width="108.73899402356263" x="0" y="0" /><path d="M36.001283161603695,60.95062176024068 m-0.5893544550859128,-1.5716118802291006 l0.39290297005727515,-7.465156431088229 2.7503207904009264,1.5716118802291006 l3.9290297005727517,5.107738610744577 4.3219326706300265,-2.7503207904009264 l1.9645148502863758,-0.5893544550859128 10.019025736460518,0.0 l6.089996035887766,-0.9822574251431879 2.357417820343651,0.5893544550859128 l0.9822574251431879,-1.1787089101718256 1.3751603952004632,-4.125481185601389 l0.9822574251431879,-0.5893544550859128 1.7680633652577384,6.089996035887766 l0.0,17.87708513760602 -0.39290297005727515,1.5716118802291006 l-2.357417820343651,2.1609663353150133 -8.643865341260053,4.3219326706300265 l-10.019025736460518,0.39290297005727515 -3.3396752454868395,-0.7858059401145503 l-2.1609663353150133,-0.9822574251431879 -8.250962371202778,-6.089996035887766 l-2.1609663353150133,-2.5538693053722885 -0.9822574251431879,-2.9467722754295638 l0.0,-2.9467722754295638 0.5893544550859128,-2.7503207904009264 l1.7680633652577384,-3.536126730515477 m8.643865341260053,8.05451088617414 l1.5716118802291006,4.714835640687302 m16.30547325737692,-9.626122766403242 l0.39290297005727515,7.072253461030954 0.9822574251431879,1.7680633652577384 m-14.53740989211918,2.9467722754295638 l8.447413856231417,-0.5893544550859128 m-3.536126730515477,0.0 l-0.19645148502863757,7.072253461030954 m-8.250962371202778,-35.55771879018341 l0.19645148502863757,-7.072253461030954 2.5538693053722885,0.19645148502863757 l4.3219326706300265,2.7503207904009264 2.5538693053722885,0.5893544550859128 l-0.5893544550859128,-6.679350490973679 0.5893544550859128,4.91128712571594 l1.7680633652577384,2.7503207904009264 1.9645148502863758,1.1787089101718256 m0.9822574251431879,-5.500641580801853 l3.143223760458201,-2.5538693053722885 0.5893544550859128,-1.5716118802291006 l-1.7680633652577384,0.0 -1.7680633652577384,1.7680633652577384 l-0.5893544550859128,1.5716118802291006 1.9645148502863758,2.357417820343651 l4.91128712571594,0.19645148502863757 0.9822574251431879,-0.5893544550859128 m0.39290297005727515,-6.089996035887766 l-1.3751603952004632,2.357417820343651 0.7858059401145503,2.5538693053722885 l1.7680633652577384,0.0 1.5716118802291006,-1.1787089101718256 l1.1787089101718256,-2.357417820343651 -0.7858059401145503,-2.1609663353150133 l-1.7680633652577384,-0.5893544550859128 m5.500641580801853,-1.7680633652577384 l2.357417820343651,6.089996035887766 1.3751603952004632,-6.679350490973679 l4.3219326706300265,4.91128712571594 0.39290297005727515,-9.036768311317328 m-40.861908885956616,53.63125541281806 l-2.5538693053722885,8.840316826288692 -0.5893544550859128,8.05451088617414 l0.9822574251431879,5.304190095773215 3.9290297005727517,7.465156431088229 m23.96708117349379,-35.36126730515477 l0.39290297005727515,6.8758019760023155 2.357417820343651,14.930312862176457 l0.39290297005727515,9.82257425143188 m-31.82514057463929,-16.30547325737692 l-6.679350490973679,-24.752887113608335 -1.1787089101718256,-1.1787089101718256 l-3.143223760458201,0.7858059401145503 -3.143223760458201,5.69709306583049 l-0.19645148502863757,8.05451088617414 3.536126730515477,11.983540586746894 l3.143223760458201,6.089996035887766 6.482899005945041,8.643865341260053 m-13.751603952004631,-20.038051472921037 l2.357417820343651,0.19645148502863757 5.304190095773215,-2.5538693053722885 l2.1609663353150133,-1.7680633652577384 1.7680633652577384,-3.536126730515477 m12.769346526861444,12.376443556804167 l0.39290297005727515,10.804831676575068 1.3751603952004632,5.69709306583049 m9.626122766403242,-20.823857413035583 l-0.5893544550859128,2.357417820343651 0.0,12.965798011890081 l0.5893544550859128,4.125481185601389 " fill="none" stroke="black" stroke-width="1" /></svg>