<?xml version="1.0" encoding="utf-8" ?>
<svg baseProfile="full" height="100.59930497075055" version="1.1" width="88.88842473085094" xmlns="http://www.w3.org/2000/svg" xmlns:ev="http://www.w3.org/2001/xml-events" xmlns:xlink="http://www.w3.org/1999/xlink"><defs /><rect fill="white" height="100.59930497075055" width="88.88842473085094" x="0" y="0" /><path d="M27.54204986052144,52.364380176606595 m0.509600804279986,-3.663764915590405 l1.03694862583481,-4.235420660718927 2.199858639415905,-6.175471449392816 l2.7000898218652725,-3.7847320204196233 3.723932873465784,-1.0185223163723762 l4.628362736905836,1.7550565052217333 4.192781940648671,3.396619363993128 l2.516827552164138,1.2743320762826826 4.78435311790973,3.35237187823335 l2.8914402176581544,4.218458028672449 1.2968123775099385,5.593494884387975 l-0.13685160201441718,2.646838994168843 -2.3666997973012487,5.309164006841216 l-3.0513787613717835,3.3114760295923196 -3.8896790208916276,4.73623474134739 l-2.5720184300143,3.3578002927144768 -2.757282984549476,1.7304651075139588 l-3.649027684640456,0.8327743671604312 -3.928656907686976,-1.2639937652363926 l-3.4481535256495643,-2.342932430956558 -2.334378499901114,-2.1795396424307807 l-3.010488332807196,-3.9009241603287745 -1.6386695138659384,-5.0094480989215135 l-0.23977350748557044,-3.437699172038107 0.897762821802968,-4.186334472792179 l3.3784356623197733,-7.978203607246037 2.059239074242866,-4.866015657146376 m-4.225640965612553,3.248293654490172 l-1.0629496632947293,-15.202051747088072 0.24179731687622052,-2.205000381025653 l0.9578609382720793,-0.6777056095221335 3.091172025131535,2.867110920297241 l6.374118858612882,7.650531369421363 2.1398313053804756,3.953936888719134 m8.672600083197658,1.2254964900331105 l7.396794338199002,-11.346101993582472 2.798511259492208,-1.2731755778166576 l0.4157268010292228,5.331195188439215 -1.2925734544238827,8.3003500303163 m-20.100681629133938,13.041162944990463 l-0.6715443675993912,-0.003769350649532738 -0.2634846506517887,1.6610748335898011 l0.6211281988637485,1.0894625196658907 1.2925345697686959,0.10716560974757285 l0.7663185694924124,-0.7035538276330097 -0.07344754517069577,-1.5351947084690665 l-0.9272044675107485,-0.08315781884365929 -0.370144281255268,0.7857763408158616 m13.142036284062012,-2.001763611784535 l-1.1645528652026733,-1.5713884712338595 -1.5366912695589163,-0.37387911043053706 l-1.0901836578771358,1.6437112249687418 0.297423375540085,1.8373292313158434 l0.9079378699651677,1.496972889087907 1.1358435819701846,1.6179104424160362 l1.6778695868561513,-0.7297096274890027 0.2069756760378662,-1.38950331787202 l-1.115366744480679,0.04088131104167475 -0.9604257086579524,-1.494782325526194 m-7.461783699065527,5.640468282906947 l0.18439384840838374,2.7466851771154057 0.9025390248905535,1.4586784367318362 l1.8471531329176423,1.6010761282230617 1.2350554167209806,-1.1087028663203646 l0.3526531632092406,-1.671497553010453 -0.942413846213043,-2.1093084480648385 l-2.4319436437417155,-0.609232209372692 m1.9997749843779533,4.511696834719933 l-1.468126678216603,5.2867963635747435 -2.413067986058597,2.4913367647595184 l-2.226462178103544,-0.7687100367927735 -0.5406992890253007,-0.4161452316285602 m7.533424626378738,-4.156612907821675 l-0.02535363555893594,1.5526114296001643 1.2078616728458362,1.1105177663087953 l3.0308970864375318,0.7444881070114813 3.5491378890302214,-0.9579244843556086 m-8.180709584550018,-4.063083583161125 l2.676564597529554,-4.921293166098661 2.2613918611206243,-0.5315561269819735 l0.9940474400587244,2.00622805114728 -0.47195908826824035,3.5155625552533087 l-2.2695298554096976,-0.25263768783238955 -0.6138113444714046,-2.3517891419371892 m-1.7485237692666815,-1.0913362916673703 l-3.111683266113862,1.0736867298646158 0.02011730120781763,-0.30311134204864765 l0.4712278109760167,-0.9850748128563177 0.857291951294036,-0.3483261847966164 l0.35352955756537857,0.6390716846588048 -0.4981712873401577,1.6506389071500178 l-1.8810438618697385,0.9398976423529148 -0.21833239572812768,-1.8624315410966563 l0.7072168022315428,-3.40568676650153 0.9941930643204611,0.32472613725419736 l0.7776661902591597,0.35926151711688753 0.21284215551338492,-0.5468570309197148 l-0.8106553816992582,0.8748827054973493 m2.1487384027741068,3.714803734528341 l-1.0545587814274953,1.9915256836367616 -2.17391095397985,-0.6154252484637107 l-0.5901688764024328,-0.36468743640404505 1.054738995757886,-0.5923141558447939 m3.391479837096114,-0.8748915615995476 l0.3233233577755665,2.0673163296198545 1.3253696198584735,1.930769370134097 l1.7082417037939286,-0.01582972096433065 0.8397578527485083,-1.0815302611047868 m-2.8169877985715654,-4.5090035207700945 l9.542198718357223,-1.835253117683419 5.67780913903502,-0.2058952689651411 m-12.581263696136418,6.476673829835004 l12.554659567291834,3.0171545189357922 1.0672619296038461,3.6258402824402247 m-11.745396620714693,-4.477871137329319 l6.661271266497604,3.698151905314902 1.415156613232627,1.0434247896289877 m-18.755779643870838,-10.78253238262263 l-11.604450171552072,0.947699622091803 -1.4723773312068367,1.770281400677162 m13.401187624413206,-1.532406263724047 l-7.758857761951228,4.3791105526483465 -2.2359260035175463,2.2929327587917827 m11.72160591629089,-4.648673779247078 l-6.169808529726595,6.682176669091677 -1.9789976986274609,2.28667507658104 m0.0,0.0 " fill="none" stroke="black" stroke-width="1" /></svg>