<?xml version="1.0" encoding="utf-8" ?>
<svg baseProfile="full" height="115.47791634735214" version="1.1" width="148.40416974058596" xmlns="http://www.w3.org/2000/svg" xmlns:ev="http://www.w3.org/2001/xml-events" xmlns:xlink="http://www.w3.org/1999/xlink"><defs /><rect fill="white" height="115.47791634735214" width="148.40416974058596" x="0" y="0" /><path d="M82.88877919423331,40.588403921332805 m-0.8433544786650149,-1.2075850740551703 l-4.93246932801281,-1.4343929008471292 -6.86266327496158,-1.9427173191470417 l-6.318526667248707,-1.1145674108386079 -7.6084649440537175,-1.258633242903138 l-6.775340136242743,1.7216235747041613 -5.971387849958758,1.105073259171271 l-4.841041518068215,2.079540219764979 -6.9266169512876425,3.9413173832904356 l-4.676706285536586,6.388382316610453 -2.03414046549473,7.091439705279622 l-0.098067294702802,6.00698587020113 1.1200433764018785,1.467596426185343 l2.1311183186133507,1.4683260669416887 6.7653727371986045,1.4251630513146896 l20.982261889926708,-0.7386934040248817 11.784121288459712,0.1574542008726576 l9.179848453323157,-2.383992135008018 8.247197520481336,-6.103230391490537 l2.4194242314718366,-1.1179533499827923 1.7993248296540216,-2.1820665281796527 l0.6046491802416446,-2.532231165049815 -0.7734848561718706,-3.922263391861814 l-3.048505071235717,-4.27731417661443 -3.508147951633993,-2.204796763579722 l-4.9223771360937825,-0.05021898689755305 -8.374085257304747,2.980549460703854 m-32.5009519350277,7.817605362924751 l-1.2279883827389477,-3.008496067912439 -0.07078428534715084,-4.819247607529116 l3.023081371166949,-12.673696781547008 1.703972104299955,-2.073032192940235 l2.0451785293252436,1.1789301378864225 7.1037267321489415,11.863021445103477 l2.971607669900341,1.359452054764511 m20.438394008642433,-4.540655724330574 l3.2946572230637794,-12.067286163208394 1.9793045794012147,-1.8888435414226559 l2.1399657743736467,-0.0989501376815257 1.127845511642908,5.040014478726798 l0.5027564613629618,12.930446825512233 -0.4993970002781181,2.9289285969924306 m-30.45557918109622,2.3877778723090546 l-0.003206003856927233,-0.8821912709919638 -1.3701414270880763,0.29141024694055373 l-1.2593293768437923,0.2700242277326684 0.13490447937696506,2.466780191648933 l1.6559116990835343,-0.34429264251114644 0.39571877479521106,-1.8916633914530616 l-0.6327607225815246,-0.03702911212119589 m16.827384949060036,-0.24904320824421539 l-0.2395465746752333,0.9454552530079188 1.0939200208317057,0.9745877479448946 l1.4187021474081285,-0.5442988830332915 0.27781442900010883,-2.060802440735042 l-1.1092238223653073,-0.03334340666064313 m-11.705896249412394,12.935060391628872 l0.44446452395375535,0.11538587562410232 0.9763272481005215,-0.28411760136782177 l0.5517726648365306,-1.5360933947186806 -1.1773298241947305,-0.677603742704337 l-1.065536345539159,-1.1024979176660614 -0.711789053173077,-1.2534823321239124 l-0.825942849831133,0.7817875579058777 0.129742553445285,0.288720297290517 l0.9942132262234428,1.082210125181124 1.121673083289702,0.2084485692643665 l0.26151810763872585,0.1135133963029894 0.07705093565478188,0.7339155934108957 l-0.6408511887543846,0.7107678712226942 -1.171976715053315,0.6492041971131763 l-0.4540470470245518,-1.1018318192619396 1.0654423696021724,1.859721044824695 l1.0125011823587473,-1.1174258754888349 0.6664006118412197,-0.9981289464767525 l0.15259687709456476,2.843173640008476 0.3873989829480225,-0.22022400432419556 l0.6835397594519745,0.3351173108111144 m0.3719794739257515,1.322839400045669 l-0.8174253750653455,7.350337774453189 -2.8705128050395623,4.564846584906576 l-3.0998410524487645,0.18125765914186243 -2.678213244109325,-2.309345768852677 l-0.49354437125883815,-1.8038274844373694 0.8021009052117375,-0.8697511190805088 m8.664330595960596,-3.8254859863022106 l-0.15343085978636573,2.2671091973304156 0.6116417710719141,3.499708116272072 l0.9564057673942646,0.3186919372929464 3.5798914526843366,-1.9159000133194621 l0.8903403882092017,-0.8264686438771144 m-8.173091224328614,-14.307465088016542 l-0.6716571697863746,2.9481731916530505 -0.08581376458354631,2.592196935827813 l0.8907376271907103,1.211217699916604 2.3673882354949507,0.6195087661235951 l1.3994897972045401,-1.6003634560328672 0.32930789944050776,-0.9000333594940931 l-0.5178129733716388,-0.8379709771961924 -2.3329177323108516,-2.6168039113559947 l-1.6442760569163146,-0.505345308898087 m12.820932916541247,0.6407380601736312 l-0.8479453215796774,1.6531806063772654 0.2851881314946528,2.9666693774989374 l0.8776418511430387,0.7073321396794565 1.6177536895599658,-0.11107187014731262 l1.1841654113717603,-1.568617537479098 0.32753689764962685,-2.3099218452784624 l-1.1107107462277526,-1.1933618403780524 -1.3970270027289966,0.07778776343162083 m6.1752222682759035,18.14801683978009 l4.821865845305562,0.2441197537493181 7.3322640772770304,-0.20648656842291807 l14.273732894888195,0.47052190141517347 4.790863397975102,-0.387352439364419 l4.186628455354456,-2.138419032125031 3.3409541939228986,-7.2816504661226515 l0.8671252734013742,-9.82544466769411 1.7311536033467383,-1.3899901964329113 l2.5828499704731156,0.1524976738791299 1.672521390844851,0.7985119287800281 l1.4524258651087747,2.3274351711182564 0.14997723263121454,4.112977800945609 l-1.8392707799776764,3.7289270562866506 -5.090239924069567,6.10903759456616 l-1.5344970818518229,4.002905747604481 -0.39362432549597953,9.365348884314189 l-2.5786716936391487,4.137311879006383 -5.815778787978784,1.131405164568765 l-2.2193967263839984,-0.7905899240499461 -3.447917854949925,-2.4595588756712017 l-1.572074289454513,-2.7273106846866373 -2.098576771160037,0.1697012018566768 l-0.6942897809495449,1.8251774834969885 -2.4221235169988176,1.278993709780779 l-7.898557437960556,1.125469165380344 -5.934055502472819,0.6859635888106971 l-3.347589708301512,-0.27445706456926616 -4.622092957259563,-3.2825507839635413 l-2.435836960132132,-2.6396693689943205 -0.8539794979010453,-3.829319545606696 l-0.9473144784600108,-3.527629608970798 -0.4513595028172156,-7.523546188793426 l-2.1488946018729496,-0.8331350401556675 m0.0,0.0 " fill="none" stroke="black" stroke-width="1" /></svg>