<?xml version="1.0" encoding="utf-8" ?>
<svg baseProfile="full" height="113.80447851223607" version="1.1" width="103.7194959040198" xmlns="http://www.w3.org/2000/svg" xmlns:ev="http://www.w3.org/2001/xml-events" xmlns:xlink="http://www.w3.org/1999/xlink"><defs /><rect fill="white" height="113.80447851223607" width="103.7194959040198" x="0" y="0" /><path d="M41.024772324876864,40.90309817542607 m-4.058901612454425,0.32774592485827786 l-2.942781900613121,0.9078664580481449 -3.1287377943328485,1.2337416432220654 l-3.363252945488915,5.035383505406137 -1.0288817216913182,3.621234557291556 l-0.19382206241869823,7.857374651632781 0.888066311709247,6.090523830298061 l1.2399638639628174,6.317416507539952 1.5619144740707425,7.091838031945681 l2.8515544132668107,3.52865446778172 4.06462082036134,2.893133359230985 l7.032778447279875,1.534154103105142 9.354409612456207,-0.539987689973407 l3.1729873284487273,-2.6022238762343983 2.4734971764392157,-3.122160286635747 l3.6594017164551107,-12.409856166070027 0.1221901784985031,-11.483689212729352 l-1.816700488334512,-6.016488726335429 -2.722487300513122,-4.3967659530324195 l-3.4491181621068914,-3.287193011016896 -4.595994847679439,-3.5079237338129863 l-3.3599799663745515,-1.6220388277167852 -2.8735625100761997,0.1560224526457274 l-3.012657709321082,1.5441680912199924 m-12.002989368287356,10.679984271918574 l0.032795076991188055,-8.53537918673902 0.24675324285355765,-9.744189347666993 l4.4878222129114915,11.776408885932335 2.3464005319865486,3.608543276084024 m15.510476129519382,-11.423678128880194 l2.9987824632500386,-7.8120497658061625 2.0246488737860515,-2.6778617723745857 l1.0023315313178593,-0.9258065085628233 0.8389446919647905,7.354833912913554 l0.8454232485171537,12.689057663337504 m-18.422747192876784,13.925633741171731 l-0.4872663212380139,1.9539215175510216 0.8797029226154,0.5970648735995522 l1.4505731641106283,-0.10203419414536337 0.6585616540166642,0.5803571927908759 l1.2901532674890182,-0.7246787840202054 0.1289850300854902,-2.263177694050767 l-1.3639582344480876,-0.5655398918398491 -0.8071769963871447,1.2519050216404275 l0.061193709643159074,1.8718039322296556 0.9335701039765805,0.634436580808311 l0.8799140398619185,-1.2536229412842455 0.1564355731662192,-0.9102434031426909 l-0.8901902631976996,-1.2555465821062444 -1.4833499845476916,-0.6202907508567237 l-1.2062763806482446,0.35529804023967865 -0.2314462306442225,0.1611016809126059 l0.9552704373939378,0.2702818584628651 m14.146569102181221,-2.1469168993228873 l-1.0558863371152682,1.223268726250595 0.138401079243886,2.126715530652688 l1.0923969988477766,1.3046111352670386 1.2509530200395063,0.031085145335462486 l0.9107165787935165,-0.901162701369779 0.3166561247992076,-0.5757953172146885 l-1.0924493089899685,-0.05392480271712921 -1.4308223978827639,0.7979301553071005 l0.10145716929746626,1.1637099723868256 1.5321891607407805,0.12484099711317541 l1.0692448549610882,-1.1584179902506302 0.13028858748696795,-0.15918564681619396 l-0.502906124257818,1.138081699409907 0.25468113547759696,-0.10105784275382654 l0.25340066659717964,-1.6167774737652545 -0.36922517711630193,0.9461721117185387 l0.08043911835214027,0.091174033601156 0.16158636782045724,-0.6149220695110541 l-0.2593582714237748,-1.8122476057751584 -0.678056515761938,0.690154767353769 l-0.23636257611112868,3.4181221919557974 0.5719317481511064,1.6569327401544314 l1.5572094661300495,2.474111915071195 1.6611313846076097,-0.16664892274142 l0.7546399872150698,-1.1243318880300859 0.07699655275225879,-1.4539448029758133 l-1.6261038024008296,-1.2709227027977805 -2.109864395545572,-0.4167663452159962 l-0.9270755929849911,1.6991945422694836 0.8513846884255697,2.3852639267863593 l1.4782049365729168,-0.011584659894090243 1.1757092890016607,-1.145804673443357 l0.04119915805951141,-1.3279539129401878 -0.8413806866420684,-1.5325355847433013 l-1.0154421398136955,0.6670149337192512 -0.1527002726225402,1.5775587366915411 l1.2002615040501476,0.0064178249256365005 0.5691356538964792,-0.6267348257664307 l-0.5288022302120827,-0.018651496867925013 m-7.61594514249758,9.432676939175341 l-1.7189306579621049,0.6612171091667646 -1.111526390927532,2.5652808777865412 l0.7021778593271621,2.0655244859726922 1.306964733271152,1.4707901710595366 l2.5112119789715117,2.13711534779349 2.0875744364817717,-0.7005304724345457 l0.6745031260686114,-0.20283154811877396 0.891146173281353,-2.252231869598569 l-0.18782154942317858,-2.1416173916243144 -1.6530745678969654,-2.8631430555656094 l-2.554783359760493,-0.8421573919775162 -1.0780194977915436,1.0967647762199282 m1.140566957126951,7.331495073649799 l-0.5035950495068091,6.549077910745817 -1.6193374551357433,-0.16801895221032315 l-4.190877365837373,-3.112172598852987 -1.0825596822563384,-1.5363370637316427 m7.153883257150957,1.4896779113994991 l3.2388221670466266,2.777446422078431 2.3323033251823433,0.8098171360338569 l2.2619618184408816,-0.6089290950132272 1.1859231700529471,-1.4689895661405317 m1.12478858938046,-12.502578697330016 l6.396576491867207,-1.2282935803853463 8.744599455142929,-3.0966817007776415 m-14.809386829809291,7.581298631621092 l3.3927480898855658,-0.7619560145837907 9.475620623971205,-1.569109010861375 m-11.010038647656502,5.3838612516327355 l9.63145234594112,2.4769146482703293 m-34.01959266627835,-6.541793299569336 l-11.28951543768394,-0.2560989534353153 -5.090783382389605,0.3590243575724078 m17.05050475538468,3.11745370860483 l-7.216677637350393,1.3970178660987878 -5.519551173237407,2.2698551300750283 m13.405839832803878,-3.8065325598797717 l-10.002281108154857,4.606307734859103 -4.499926868019862,2.3176179084732063 m0.0,0.0 " fill="none" stroke="black" stroke-width="1" /></svg>