<?xml version="1.0" encoding="utf-8" ?>
<svg baseProfile="full" height="79.06224541585645" version="1.1" width="77.89530158765773" xmlns="http://www.w3.org/2000/svg" xmlns:ev="http://www.w3.org/2001/xml-events" xmlns:xlink="http://www.w3.org/1999/xlink"><defs /><rect fill="white" height="79.06224541585645" width="77.89530158765773" x="0" y="0" /><path d="M43.70602641380415,33.327688203473386 m-3.1407242012466376,0.7582918491348064 l-2.423556670243832,-0.15075840950501518 -4.5747475416391135,-0.049375355026188006 l-3.043031129066479,0.9731781881095432 -3.450475341164626,3.7413314075445685 l-1.8810277869729122,4.892447625289 -0.19246374347055803,7.882576277873568 l1.901375778758329,2.4687371430237413 2.1070585210928234,0.21812848593904588 l6.7848011828422035,-0.09636589164471021 6.370875471056948,0.02376177383950573 l3.0120267521281363,-0.9891854825306563 4.784792914745528,-2.2236737682939522 l1.9030545174108364,-2.7974747161471463 0.25755195220986,-2.036468018139892 l-0.9835013076843183,-5.010346231221853 -2.2210369760198305,-4.551032693130783 l-2.7313061183030443,-3.0693636806888027 -3.3437979613941176,-2.730296588671406 m-15.060369942446282,4.75906548403168 l0.4711517973832759,-5.485100043000755 1.553146695391874,-4.185606485344628 l1.0603764847048254,1.0991706063660296 4.30976780295794,6.566720195282787 m9.237290532136319,-1.714318086297412 l5.457029931349573,-4.863751354102397 2.816551370437277,-1.7579804361620595 l0.20846218889957732,7.211880975864637 -2.1884757659656957,8.081041961550651 m-17.271739326734767,-2.4653403566325336 l-0.06910756471637206,-1.841644603780197 m8.771651597975296,1.3659432589497904 l0.0016756549320383752,-0.16010631652556334 m-8.954236809327432,7.309811136832971 l1.5588188184926766,2.3360851067573933 2.0034826070071317,1.72354318934686 l2.6350085246845767,-0.07623363524195174 1.118550001122318,-0.10524123674638314 l2.269282979995671,-2.509413560577676 m-2.501198922536708,-4.8056780618377255 l6.2581113746575605,-2.8647947401464857 m-5.282895450443219,3.0066832757483875 l6.821759319810803,1.4990953621013818 m-6.54795708086947,0.23139541857649965 l5.258771582139699,1.0408880295922744 m-11.810683683419525,-4.42745548842145 l-7.969079070281446,-2.5174772696427836 m7.671752400137601,3.6632850691196914 l-6.2140279918315215,-1.1669689735407218 m5.600699211609015,2.8669407365854793 l-4.658898830972948,-1.051011957164404 m5.838656684584778,-8.463740661776239 l0.09752428743052516,2.028182326422714 m6.306959733944538,-0.21840733024857895 l-0.15676529435653486,0.4563654078169335 m-4.3540409269506135,5.069526266586918 l0.755382059587634,1.8423992611452078 0.8979737617847323,-1.543710343554541 l0.04669661372758847,-0.4877003143836699 -0.7818058660588335,-0.432098831218867 m0.0,0.0 " fill="none" stroke="black" stroke-width="1" /></svg>