<?xml version="1.0" encoding="utf-8" ?>
<svg baseProfile="full" height="129.13532301706553" version="1.1" width="128.19637424142513" xmlns="http://www.w3.org/2000/svg" xmlns:ev="http://www.w3.org/2001/xml-events" xmlns:xlink="http://www.w3.org/1999/xlink"><defs /><rect fill="white" height="129.13532301706553" width="128.19637424142513" x="0" y="0" /><path d="M89.15639687466948,35.1747461580803 m-1.456645554561873,-1.3354436329827728 l-4.042906092107967,-0.9052812933227273 -4.310563295543793,-0.3114665807169923 l-5.964275084463268,-0.30404094120875397 -6.488846650243241,0.07987235323062822 l-6.112931551745447,1.154829048790565 -7.050872081200231,2.271240536869847 l-8.01632970269162,6.990329793405552 -3.1042294385156644,2.8131075181336276 l-3.1566741927930178,2.0921161192230335 -4.78924445470462,4.7539868385034945 l-2.7836876722221358,3.8889636454244134 -3.476850260934613,5.028868906345689 l-2.7973794260184883,6.823508779039789 -0.6049614169234936,5.544207100122002 l0.6730668566363496,4.324302477763862 2.6924680268033296,6.12539439450918 l2.657981342385969,6.985532154074492 5.204564113643442,6.658993943064231 l8.690566362341581,5.457226613024262 6.465963978769819,0.8243290856917853 l7.94773501307121,-1.465419376784054 6.476972618297155,-3.532248868957375 l5.901411913615766,-4.693562137717932 5.321373798216826,-5.893121835609609 l3.6507997796517713,-4.120659590149616 3.88597601757783,-3.917775299395704 l3.5427644346437095,-4.365951664041526 2.771832716889956,-4.507460926007527 l1.8971633436884194,-6.3708178031246385 0.5046104864615866,-7.261049904117704 l-0.6645310242596265,-4.533008387363237 -2.556052127847225,-5.20276349632566 l-3.4292319711871038,-4.2131089137874715 -4.778976050088806,-5.019398723534377 l-4.1836470516940265,-1.3210269513954742 -4.7208162470457475,-0.7854129457934569 m-37.45039405810325,17.197229263458986 l-0.7958785105486845,-2.3807098497341777 0.018327804216271698,-7.298727868728898 l3.0972479255233187,-12.163173508501636 1.944280681241564,-3.273911925646958 l2.3714631548453435,-2.9786332013464443 2.384171870324745,-1.03460910246103 l2.258399567615721,2.2801432602873373 7.813865799042031,15.467425850808558 l3.026695741159339,0.42484876479272016 m24.751850879388176,2.508263276827299 l1.6948954865305057,-1.7302117985024628 6.409092082729082,-3.8328056772412564 l8.627764788403457,-4.838645174166684 3.5058481072277745,-1.3459712708286782 l0.5867465912575445,0.6871944214227146 -0.32939978129439534,0.7854156207310711 l-7.108053488693455,7.704969130364804 -6.738925476067232,12.549326190565088 m-36.0739435445676,16.348581039413812 l3.4854333455014785,-0.19871085292633178 3.464705981899636,1.219997477815556 l0.9188038711433936,-0.2840043161594197 0.18333945095255244,-2.265856700586232 l-2.3103685885495886,1.0457159134353817 -3.345285061790967,3.16763864168624 l-0.9215139084889323,-4.31740478796453 0.46663908745329136,-1.0480343598805086 m7.909371183579306,4.099651913936396 l11.28362082104138,-4.9092005553798215 12.188910466234098,-2.7365110732346296 m-21.87946690605092,10.666565548631134 l15.240138152024487,5.167689132727329 4.992614685953967,1.9417630451293084 m-21.98540011860824,-0.1520704565061598 l3.982777727067096,4.899309417193593 5.847125907439275,8.01885193143128 m-24.49581632967439,-23.94343969306412 l-12.53528766628751,-2.5148855879421106 -7.5260840811278715,-1.2017906063296737 m21.587133332520143,8.282582090988463 l-11.181022234955046,2.3487701180331224 -7.169035793772186,2.7003651931929107 m20.015147674760243,-2.53335405677083 l-6.846230300454215,5.92514166766912 -4.591311565860909,6.310256615882707 m0.0,0.0 " fill="none" stroke="black" stroke-width="1" /></svg>