<?xml version="1.0" encoding="utf-8" ?>
<svg baseProfile="full" height="97.85100131581243" version="1.1" width="97.59226763312466" xmlns="http://www.w3.org/2000/svg" xmlns:ev="http://www.w3.org/2001/xml-events" xmlns:xlink="http://www.w3.org/1999/xlink"><defs /><rect fill="white" height="97.85100131581243" width="97.59226763312466" x="0" y="0" /><path d="M60.46542661871272,36.870334253606714 m-1.0958263268829496,-2.797587036982565 l-2.621470782446784,-3.8613579458684804 -3.661845151061075,-1.7157783681495598 l-4.667438409732411,-0.47353163884698746 -6.491364231752332,0.5902236527804147 l-4.9674445424957465,0.7850675230482453 -6.711534593640301,5.616629284083549 l-2.7691989553539,5.367628632043015 -1.3831855394880588,5.0391588904569025 l-0.028432240817545824,4.508932687246932 0.9554330100095141,3.8567834259583056 l2.086676533416366,4.928404521073206 4.203312246070561,7.004466923730509 l2.943776156524638,3.5441743464971087 2.9021441812196462,1.9069893645881075 l3.8910412816356175,1.6804628005470068 4.4692665767640385,-0.7014788967821212 l4.480776242118749,-5.05941366765958 2.6967741470926025,-4.570611872841795 l2.846509152134391,-5.834826953327759 1.2393770181301023,-5.955799371912818 l-0.14144997730128817,-6.478164286062189 -2.046263205374781,-6.555097138396027 l-2.1482252430285342,-5.7036990670165775 -2.444995589991934,-1.801203563969363 l-2.724614525489285,1.7182033631779703 m-15.424451334169387,8.565425848585276 l-0.6511320023901652,-1.613073728241513 -0.10456086085422335,-3.191161801009146 l1.9586785083547602,-6.991536838141494 1.5521229903439484,-2.971481794913411 l0.9816112275420877,-0.7070815473018829 1.046622380791674,0.7443910451146404 l3.6950007960680664,9.90474927592175 m10.72396499104092,1.3279176472273868 l1.377494975107794,-2.4897771542235585 4.9096531750317185,-6.375370572751283 l0.5948554170712571,-1.4004622608714385 0.8094860111545323,-0.0390476253239376 l0.5518600656231487,2.913729079878168 -0.8033616636357621,15.964108415692445 l-0.6590492241601156,3.256215347703324 m-14.480070982416485,-3.401504397820505 l-0.9620987632390195,-0.08418338348870666 -0.7798786010452499,1.8077936234291891 l0.292577364875601,1.4749493231324322 0.9660241032636188,-1.0272062424757278 l0.020391415063174354,-2.3745025802271225 -1.0397800171027642,0.3580966674006057 m8.723820043926604,1.274755829840183 l-1.238739778850133,-1.39086103217741 -0.04165769954634636,1.6019671026420401 l0.7412612004208574,0.6622636470662167 1.3214599332493255,-1.2261473449827758 l-0.24329151995054837,0.3067414514299893 m-5.645061008907494,10.918456194279216 l-0.755002751366306,0.618194372712077 0.2364634331620292,0.7043308092815077 l0.7330917101743761,-1.6483140378804428 -0.3051144820683564,-1.4718315440554377 l-0.9010604473141854,-0.4273898620867936 -0.6700897561538263,0.02710560285860794 l-0.24315722512774632,1.6210454471603046 0.6403532268921698,0.022190303149127455 l0.8350218149820213,0.42130441005941655 0.09501278476419919,1.4279012467061303 l-0.8270209339015128,0.8336215736390507 -0.7708805860303948,-0.5391732303256761 l0.3593776202949751,-2.856569485419201 m0.04342121240673805,6.189821466508441 l-0.5188751709798148,1.1771373968944971 -1.3693836794967706,0.23394480918519492 l-3.92196998636428,-2.0417311089409416 -2.1370704777035185,-3.5680551707748758 m8.503041348449655,7.366516503322549 l1.5836152474890446,0.3185751226012921 2.334413205713089,-1.4592646562427474 l1.0723057507656881,-1.184424427740572 2.048872006453024,-3.96580662644599 m-11.86606781949827,2.7501643207213067 l-4.053366354749227,1.3591523384007815 -5.34427852336005,1.4012042244401772 l-7.272626159066172,0.77209570434122 m16.62993167547979,-2.8516891882952278 l-1.9991891542968754,0.1424065712593324 -9.004229761004892,3.97006130950633 l-2.2925394849267833,1.0249468226227483 m27.447025417189217,-7.986845448844428 l11.249260421048794,-2.3907153748843433 5.562008519635424,-0.32975167101698766 m-15.740303710458944,6.908365165262327 l9.571155275983797,-0.07944987816015314 3.375408935413259,2.581690796684136 m0.0,0.0 " fill="none" stroke="black" stroke-width="1" /></svg>