<?xml version="1.0" encoding="utf-8" ?>
<svg baseProfile="full" height="101.07738610744578" version="1.1" width="112.07866926904947" xmlns="http://www.w3.org/2000/svg" xmlns:ev="http://www.w3.org/2001/xml-events" xmlns:xlink="http://www.w3.org/1999/xlink"><defs /><rect fill="white" height="101.07738610744578" width="112.07866926904947" x="0" y="0" /><path d="M25.98225742514319,40.519667317262375 m-0.9822574251431879,3.3396752454868395 l0.0,7.465156431088229 0.7858059401145503,2.5538693053722885 l15.912570287319644,18.85934256274921 1.9645148502863758,1.5716118802291006 l2.7503207904009264,1.1787089101718256 3.9290297005727517,0.5893544550859128 l11.197734646632341,0.0 12.965798011890081,-1.9645148502863758 l6.482899005945041,-3.7325782155441143 1.7680633652577384,-1.9645148502863758 l3.7325782155441143,-6.089996035887766 0.5893544550859128,-2.7503207904009264 l0.0,-14.53740989211918 -0.7858059401145503,-4.714835640687302 l-0.7858059401145503,-2.357417820343651 -4.714835640687302,-7.465156431088229 l-2.1609663353150133,-5.500641580801853 -3.143223760458201,3.7325782155441143 l-3.143223760458201,6.286447520916402 -4.3219326706300265,6.089996035887766 l-2.5538693053722885,5.69709306583049 -1.9645148502863758,-3.536126730515477 l-2.357417820343651,-0.5893544550859128 -4.125481185601389,-3.3396752454868395 l-3.143223760458201,-1.5716118802291006 -5.304190095773215,1.9645148502863758 l-3.9290297005727517,2.7503207904009264 -4.125481185601389,4.91128712571594 l-0.5893544550859128,-10.804831676575068 -4.125481185601389,-6.8758019760023155 l-1.9645148502863758,-1.3751603952004632 -1.5716118802291006,0.0 l-1.5716118802291006,5.500641580801853 0.39290297005727515,12.769346526861444 m19.055794047777848,4.91128712571594 l-3.536126730515477,-0.19645148502863757 -0.9822574251431879,1.3751603952004632 l0.0,3.3396752454868395 0.7858059401145503,2.7503207904009264 l2.357417820343651,-1.9645148502863758 1.7680633652577384,-7.26870494605959 m17.287730682520106,5.8935445508591275 l-0.9822574251431879,-0.39290297005727515 -0.9822574251431879,0.5893544550859128 l-0.9822574251431879,2.1609663353150133 -0.7858059401145503,4.714835640687302 l0.9822574251431879,0.7858059401145503 1.3751603952004632,-0.5893544550859128 l1.7680633652577384,-3.536126730515477 0.0,-6.089996035887766 l-1.3751603952004632,-0.39290297005727515 -0.7858059401145503,0.5893544550859128 m6.482899005945041,7.072253461030954 l5.8935445508591275,-9.626122766403242 m-9.429671281374604,13.948055437033268 l6.286447520916402,-0.9822574251431879 1.3751603952004632,-0.9822574251431879 m-2.9467722754295638,4.91128712571594 l2.1609663353150133,5.8935445508591275 m-38.70094255064161,-12.376443556804167 l-3.9290297005727517,-2.5538693053722885 -1.3751603952004632,-3.143223760458201 m6.679350490973679,9.429671281374604 l-3.143223760458201,1.1787089101718256 -6.089996035887766,0.0 " fill="none" stroke="black" stroke-width="1" /></svg>