<?xml version="1.0" encoding="utf-8" ?>
<svg baseProfile="full" height="82.41055628952599" version="1.1" width="85.38385188067048" xmlns="http://www.w3.org/2000/svg" xmlns:ev="http://www.w3.org/2001/xml-events" xmlns:xlink="http://www.w3.org/1999/xlink"><defs /><rect fill="white" height="82.41055628952599" width="85.38385188067048" x="0" y="0" /><path d="M43.05749221905866,32.181245052592075 m-1.7677138124687577,0.3536350624383386 l-2.9203438640166066,3.3293770993824587 -2.282976168399729,1.0231724350912308 l-1.1340352071070623,1.8411708548246104 -0.20886534496814063,4.255134163508463 l0.9507052514110492,2.082773167607037 1.9075982304937138,1.2527821274557323 l4.171918223519882,1.4806888468890271 5.066098939682573,-0.3420878089736777 l2.946455327260764,-2.64512891772242 1.7725393737046098,-2.3889855882165825 l1.2177825466472414,-2.637149412054094 0.6081804856925731,-4.161971064406871 l-1.0999610929026087,-1.8817063958988482 -2.8670128975424007,-3.166181562508153 l-1.8187316930820243,0.41592894912180683 -2.275537329377535,0.6734962995568899 m-6.22772140245517,6.222260983116197 l-2.6189205034884275,-8.047493183465177 -0.157140546307344,-4.840961108338043 l2.4170239427482314,0.14927383637111657 6.474251768698004,8.731598853797902 m5.630524642020327,0.12234607789876034 l6.479931350620019,-5.452008769906502 2.235395405635183,0.7253062552794844 l0.826914035593459,1.496547675939316 -0.010216400352293445,2.817981734930608 l-2.1586046739914586,2.988103157372582 m-14.53050922079511,1.7512543345914477 l-0.014517261423813653,0.2966468742317939 m7.842852511543117,0.8864130690743988 l-0.014520146684665081,0.09824276033403717 m-5.703105937353989,4.090625006915826 l0.3897764713920969,0.2844371692284531 0.5548959625707967,0.5630204809572034 l0.9721174117283321,1.5354170967116887 1.1326367076790933,1.3028222673135903 l0.9630137137609277,-0.019455221714062276 0.5466956969171849,-1.2934705879416721 m-4.368220992145253,0.336247388988154 l-1.2906953771629686,2.124439139951791 -2.9592294196483437,1.5166315373326278 l-2.731347278254529,-0.21978639993388535 -1.6906451330924583,-0.8784588355580739 m10.432369375285957,-11.525737473680712 l-0.5146995800282139,1.7258831219061537 m-8.727104705891952,1.3854618167461807 l0.25576621476959566,1.473890122487851 m4.510205689292877,3.1002554021627504 l2.901195727125591,0.962160990343221 5.994519073553475,-0.6665016521471225 m-9.24879301804852,1.5872528548021043 l8.190371797125483,2.3183553753105457 5.846373897690353,-0.49563223420981833 m-13.895232330528367,1.376107502560318 l9.959581429481513,3.0007925985355115 1.6028415471418718,-0.5984388040227651 m-12.804756493553395,-4.855407671206461 l-11.583126771782396,-2.2544826783016982 -5.233740366991015,-0.7276598710531405 m14.78315051974444,5.80176311043098 l-8.055427885094572,0.04743502709332992 -3.2596443634582144,1.1565059809668214 m10.80986159440168,1.1899503671876945 l-5.656792397106187,2.814482251910804 -2.4924948696448577,1.6399452495368627 m7.389162263036931,-11.92882606623456 l-0.6061857969956432,-0.7597800768972973 m7.090274769196575,-3.381031374169099 l-0.01172951741654602,-0.30405547877669387 m-3.763256426489141,8.674728962129016 l1.3911387971811453,2.2182488303963255 1.601402712516447,-0.6364860542713291 l2.716358974882842,-1.4673445782817414 m0.0,0.0 " fill="none" stroke="black" stroke-width="1" /></svg>