<?xml version="1.0" encoding="utf-8" ?>
<svg baseProfile="full" height="84.92715014964243" version="1.1" width="87.8977556433723" xmlns="http://www.w3.org/2000/svg" xmlns:ev="http://www.w3.org/2001/xml-events" xmlns:xlink="http://www.w3.org/1999/xlink"><defs /><rect fill="white" height="84.92715014964243" width="87.8977556433723" x="0" y="0" /><path d="M36.69164007469131,35.1954822047279 m-2.652077078011191,-1.4759957886332036 l-3.5593525190945305,-0.6237179456490047 -2.9518524149652,3.185553848269589 l-2.068663844143415,4.664681861307474 -0.45969421847697156,2.2784219161263253 l0.10162106748107996,5.036598704207613 1.2616482367616995,1.7026487970238815 l2.4666168052192914,2.9956286350336074 4.454117484217407,2.9503322499558204 l4.3032055912658365,1.5658031645430788 4.238112317385866,0.15035235644879727 l2.86241248526536,-0.21806033575393596 2.9382348164634156,-0.5157160659958976 l4.4295566057909745,-0.24918063426405845 2.9285839714835116,-1.2000073533593048 l2.0343950295032034,-2.036840254292558 0.9396997464610701,-2.2932087245523047 l-0.07518016427371518,-8.745440803649787 -2.238658951112229,-5.0341912173754695 l-2.920308512369677,-1.6413299028380506 -5.181914712054107,-1.3412718906340622 l-4.6221809700230265,-0.1310328107558461 -6.414202209346544,1.3326512369455923 m-7.586015754733584,3.703448859059111 l0.09302269041430503,-10.726047898551728 0.9205510967532863,-1.6645228542874362 l1.0060695407193587,-0.8795095434765915 1.8755161959429236,-0.9855298095795603 l2.1509979882869934,0.3637789787978794 5.19729574264511,8.469494741152053 l1.3967217017337608,-0.20782755590382396 m11.866738131098684,1.8931532166505567 l6.0086836587373815,-6.6728092076633 2.6716074105475656,-0.2638520892060303 l0.7908086031070986,5.9353133934422 -1.140787282216979,4.95210776859428 m-22.543928770583452,7.728470969578343 l0.9011784379725866,-1.9511262556188882 0.7845025046308549,1.2722576604162854 l0.8292988281636665,-0.8608204649412988 0.8849088218312864,0.1897761348041596 l-0.08773958715174487,3.23169165898483 -1.1592766432578716,1.5531654656675875 l-1.923324482432448,0.012840786127746627 -0.075910167854756,-1.2746264493378574 l1.3397262281145488,-0.8199745041662212 1.6910105501409767,1.5938516299229273 l0.001887965722895922,1.1400808475506343 -2.0866401543746194,0.9585620198004516 l-0.6199464696586385,-1.7931999785375536 0.4414910002241759,-0.5837244842158653 l1.028472163860072,1.2834868768373393 -0.5569160329936733,1.3488765378953795 l-2.490611548226053,-0.5781764012797083 -0.5350626170526837,-2.8606161725825734 l2.015946254632542,-1.3633154278894268 1.3961121094099211,-1.2112288490522805 m12.281527682078512,3.732059603326006 l1.079879080772889,-1.739492829269087 1.5537426819407512,0.06755870096569278 l0.9065979591364302,2.502779674667658 -0.7215959532870325,-0.4098298073333595 l-3.056597412560206,-0.5556215455284808 -0.3312929294543446,-1.5756487073186647 l0.9791747835365535,-0.4116488169732262 0.5914212251872377,1.9575018371272017 l-0.8053992001978072,1.6961008561672832 -1.9226992029384804,-0.2998908074426694 l0.009877031025367442,-2.849212282794671 1.0559288927067305,0.44860718897678675 m-5.182123351609242,6.2501031948483385 l0.9963262269690921,2.4836372948891796 -0.791010464177184,1.3461598621745154 l-1.1580396955469157,0.7983758873320926 -2.4870529088485536,-1.4926376883584096 l-0.04445913226045921,-0.4356523836036839 1.3476975122610706,-0.5226699166793344 m3.2118154145288274,-0.2715393275348113 l1.3347221687191957,1.8593000775756374 1.9578347755680492,0.39855547054855434 l0.9437993584149204,-1.7516192252038503 -0.028103218473553154,-1.6854304350489362 m0.0,0.0 " fill="none" stroke="black" stroke-width="1" /></svg>