<?xml version="1.0" encoding="utf-8" ?>
<svg baseProfile="full" height="109.13888402187311" version="1.1" width="111.76613481239404" xmlns="http://www.w3.org/2000/svg" xmlns:ev="http://www.w3.org/2001/xml-events" xmlns:xlink="http://www.w3.org/1999/xlink"><defs /><rect fill="white" height="109.13888402187311" width="111.76613481239404" x="0" y="0" /><path d="M27.416326862525473,51.69414260270455 m-1.4547256087344211,1.6693842566211594 l-0.9332941585833118,4.114270187360335 -0.02830709520773858,9.462074437988823 l0.867261199725481,1.491351945074838 1.5556904741077815,2.5856695710784883 l3.6111504257598157,4.162008597900432 6.246693972700991,4.24579043642767 l7.9341351184757585,3.211128683140001 8.151253793113682,1.1739794009777682 l7.394383462462295,0.32908390259903525 4.039230031431451,-0.3879236608352938 l6.854097924282918,-4.876144706867496 2.0160115737144397,-3.851786136003468 l0.622835747205125,-4.396741493262533 -0.9964762129431918,-7.412586440319472 l-3.7756182842214785,-4.8872093905797005 -4.114449213235719,-5.77730889484015 l-2.821667686488908,-4.1807102245599275 -4.754137273561967,-7.016397323102271 l-4.7093052409388925,-4.569578189201899 -2.0241470328468414,0.1986992190737305 l-2.8851480004327827,-0.11940589481913039 -3.7443341590364723,1.299893586299729 l-5.873736713645969,5.510767900712451 -2.515279442268655,4.211062615577334 l-1.1076394293431113,6.74015247342545 -1.1794838556547365,-0.8059154351516319 m-2.0758105993491447,-9.523140758959702 l0.15792166194602442,-2.055553142041174 -0.7559126285684304,-4.214637659356868 l-4.287196687570506,-12.296497835598306 2.0036193179354425,2.1094495416091137 l9.502612576700619,10.999554924143494 2.2010870643314417,2.6532932707763432 m15.271399299612742,-2.077028531186257 l1.800316499136603,-0.813447021153022 6.3886951093555195,-6.28801124164262 l6.341155079278138,-7.311733574009827 -1.3261876603474425,15.809573393591627 l-1.5923903240849815,-0.542649450382825 m-23.335800311588173,9.475427673393266 l0.358018512279938,0.09309263001573947 0.20616379108069044,0.8542730733681422 l-0.022899085351513058,0.04127541550243434 0.09563407424320186,-1.2923151035478642 l-0.3446173186475269,-0.42867977393975504 0.08386623500559104,2.5470809092657065 m12.481406143361037,-0.8922102990916806 l-0.15619742284094076,1.9345897750289132 -0.2701538377783967,0.6491471422354517 l-0.21960463191596938,-0.5419950508918969 0.25027382938085246,-1.135708647779209 l0.5071446489059345,-1.5302439291431729 0.2539558490349859,1.7459793663076189 l-0.3676965386336878,1.3674317832273934 m-7.558605602222712,12.441377851665113 l0.36086591095858306,3.1093138535163503 0.021599592848684374,0.848781487868008 l0.4472006652609085,0.27106607126707444 0.9460653674613448,-3.441067485417124 l-0.40265693825534693,0.17603124354354655 -0.28942123936048686,1.0266448222787776 m0.9011700218117772,0.6859629271374862 l-1.6729274370103904,3.3659236430974118 -2.989891128121123,2.938910397302428 l-3.4097613403806504,0.23922698839517725 -1.9652440493921535,-0.8889597297676153 m9.205404221621896,-6.777279473147664 l0.6611969174347417,0.4221330847115176 1.7632956394602044,1.4899115828835034 l3.3156036460806826,1.0511385262796968 4.014170935644184,-0.03365841142208163 l1.2195401650330704,-0.7524312381424503 m-2.997701719625999,-10.935240060546981 l22.482182115150174,-1.4047759700963502 5.773925244723604,2.3253503561141007 m-23.972083758274916,2.166677942128991 l4.5459961868185,0.7052096216031551 7.972967993350473,2.2923665348821687 l4.115263781917586,1.7862441042287007 m-19.231957473119266,-2.6344723817436404 l4.344802184756364,-1.8324226712701241 4.980732608494162,-2.086737978694244 l8.999383439158542,-1.5777486246667562 3.6686738000951458,-1.0479672707902472 m-39.52780365010648,1.9144058741122654 l-7.2429396018015355,-3.0361928972883105 -6.4465202889712625,-2.151891258567581 m15.687955311109127,11.036503182010092 l-6.49866339265298,-4.531329520005721 -6.754298277685322,-2.9474763647644173 m13.718314887944002,10.017334397295016 l-5.841126333353632,-2.1893816787008755 -5.826324434910974,0.5011596436691329 m0.0,0.0 " fill="none" stroke="black" stroke-width="1" /></svg>