<?xml version="1.0" encoding="utf-8" ?>
<svg baseProfile="full" height="96.16609898172983" version="1.1" width="94.3980356164721" xmlns="http://www.w3.org/2000/svg" xmlns:ev="http://www.w3.org/2001/xml-events" xmlns:xlink="http://www.w3.org/1999/xlink"><defs /><rect fill="white" height="96.16609898172983" width="94.3980356164721" x="0" y="0" /><path d="M58.00384948481113,45.62740592800695 m-7.072253461030954,-3.536126730515477 l-5.304190095773215,-0.5893544550859128 -4.91128712571594,0.5893544550859128 l-3.9290297005727517,2.357417820343651 -3.3396752454868395,3.7325782155441143 l-1.7680633652577384,4.125481185601389 -0.19645148502863757,2.357417820343651 l0.5893544550859128,4.518384155658664 1.9645148502863758,4.125481185601389 l2.1609663353150133,1.7680633652577384 4.714835640687302,1.9645148502863758 l6.482899005945041,0.7858059401145503 7.072253461030954,-1.1787089101718256 l5.304190095773215,-2.9467722754295638 3.143223760458201,-3.536126730515477 l1.9645148502863758,-3.7325782155441143 0.5893544550859128,-1.9645148502863758 l0.0,-3.7325782155441143 -2.1609663353150133,-4.125481185601389 l-6.8758019760023155,-3.143223760458201 m-4.518384155658664,-2.357417820343651 l0.0,-2.7503207904009264 1.7680633652577384,-5.107738610744577 l5.304190095773215,-8.250962371202778 1.1787089101718256,0.7858059401145503 l0.5893544550859128,2.7503207904009264 0.19645148502863757,6.8758019760023155 l-0.5893544550859128,7.465156431088229 0.39290297005727515,1.9645148502863758 m-21.21676038309286,-3.536126730515477 l-1.7680633652577384,-4.125481185601389 -1.3751603952004632,-7.26870494605959 l-1.1787089101718256,-2.1609663353150133 -0.9822574251431879,-0.39290297005727515 l-0.9822574251431879,0.19645148502863757 -1.1787089101718256,2.7503207904009264 l-0.7858059401145503,5.107738610744577 0.0,16.10902177234828 m17.287730682520106,5.500641580801853 l0.0,0.0 m-0.39290297005727515,-0.19645148502863757 l0.0,0.9822574251431879 -0.7858059401145503,0.19645148502863757 m5.304190095773215,-6.679350490973679 l2.1609663353150133,0.0 0.7858059401145503,0.19645148502863757 l-0.9822574251431879,0.5893544550859128 -0.5893544550859128,-0.19645148502863757 m-15.912570287319644,1.9645148502863758 l2.1609663353150133,-2.1609663353150133 m18.073536622634656,4.91128712571594 l5.304190095773215,-1.7680633652577384 5.69709306583049,-2.9467722754295638 m-12.376443556804167,10.804831676575068 l11.787089101718255,3.9290297005727517 m-14.340958407090545,0.19645148502863757 l2.357417820343651,2.1609663353150133 0.9822574251431879,2.1609663353150133 m-22.78837226332196,-15.126764347205095 l-3.9290297005727517,-1.1787089101718256 -6.089996035887766,0.0 " fill="none" stroke="black" stroke-width="1" /></svg>