<?xml version="1.0" encoding="utf-8" ?>
<svg baseProfile="full" height="118.95447124505179" version="1.1" width="157.26251082563613" xmlns="http://www.w3.org/2000/svg" xmlns:ev="http://www.w3.org/2001/xml-events" xmlns:xlink="http://www.w3.org/1999/xlink"><defs /><rect fill="white" height="118.95447124505179" width="157.26251082563613" x="0" y="0" /><path d="M66.64771482607117,37.96579801189009 m-1.5716118802291006,0.0 l-6.286447520916402,2.357417820343651 -6.679350490973679,3.9290297005727517 l-2.9467722754295638,3.143223760458201 -2.357417820343651,4.3219326706300265 l-1.1787089101718256,6.089996035887766 0.39290297005727515,15.912570287319644 l3.9290297005727517,8.840316826288692 3.7325782155441143,3.9290297005727517 l5.304190095773215,3.9290297005727517 4.91128712571594,2.1609663353150133 l9.429671281374604,1.3751603952004632 14.73386137714782,0.0 l6.089996035887766,-1.7680633652577384 8.447413856231417,-4.91128712571594 l2.7503207904009264,-2.5538693053722885 2.357417820343651,-5.69709306583049 l0.19645148502863757,-19.64514850286376 -2.357417820343651,-6.286447520916402 l-4.3219326706300265,-5.69709306583049 -2.9467722754295638,-2.9467722754295638 l-9.036768311317328,-6.482899005945041 -4.91128712571594,-2.1609663353150133 l-7.661607916116866,0.0 -8.840316826288692,3.143223760458201 m0.0,0.0 l-2.357417820343651,-10.019025736460518 -1.3751603952004632,-2.357417820343651 l-2.1609663353150133,-1.5716118802291006 -0.9822574251431879,0.0 l-0.9822574251431879,0.19645148502863757 -5.500641580801853,15.323215832233732 m41.058360370985255,-5.107738610744577 l-0.39290297005727515,-0.9822574251431879 2.1609663353150133,-2.1609663353150133 l4.91128712571594,-3.3396752454868395 2.1609663353150133,-0.7858059401145503 l0.9822574251431879,2.5538693053722885 -0.39290297005727515,14.340958407090545 m-30.842883149496103,25.931596023780163 l-0.7858059401145503,1.3751603952004632 0.0,2.357417820343651 l0.19645148502863757,0.9822574251431879 0.9822574251431879,0.39290297005727515 l3.9290297005727517,0.9822574251431879 1.1787089101718256,0.0 l0.5893544550859128,-0.9822574251431879 0.0,-1.3751603952004632 l-0.7858059401145503,-0.9822574251431879 -2.7503207904009264,-1.9645148502863758 m17.09127919749147,-0.5893544550859128 l4.714835640687302,-2.9467722754295638 5.304190095773215,-1.1787089101718256 l24.949338598636974,-3.536126730515477 m-22.984823748350596,15.323215832233732 l26.520950478866077,7.26870494605959 m-75.2409187659682,-14.930312862176457 l-21.21676038309286,0.0 -6.8758019760023155,1.9645148502863758 m29.271271269267,6.482899005945041 l-0.7858059401145503,1.1787089101718256 -4.91128712571594,3.536126730515477 l-27.503207904009262,8.447413856231417 m42.040617796128444,-44.00513264641482 l-1.9645148502863758,0.7858059401145503 -0.7858059401145503,0.9822574251431879 l-0.7858059401145503,1.9645148502863758 -0.19645148502863757,3.536126730515477 l2.1609663353150133,0.7858059401145503 3.143223760458201,0.0 l1.1787089101718256,-0.9822574251431879 0.19645148502863757,-1.1787089101718256 l0.0,-6.679350490973679 m19.055794047777848,0.9822574251431879 l-1.9645148502863758,0.19645148502863757 -0.9822574251431879,1.3751603952004632 " fill="none" stroke="black" stroke-width="1" /></svg>