<?xml version="1.0" encoding="utf-8" ?>
<svg baseProfile="full" height="133.29542965214233" version="1.1" width="108.73899402356263" xmlns="http://www.w3.org/2000/svg" xmlns:ev="http://www.w3.org/2001/xml-events" xmlns:xlink="http://www.w3.org/1999/xlink"><defs /><rect fill="white" height="133.29542965214233" width="108.73899402356263" x="0" y="0" /><path d="M36.001283161603695,60.95062176024068 m-0.5893544550859128,-1.5716118802291006 m0.39290297005727515,-7.465156431088229 m2.7503207904009264,1.5716118802291006 m3.9290297005727517,5.107738610744577 m4.3219326706300265,-2.7503207904009264 m1.9645148502863758,-0.5893544550859128 m10.019025736460518,0.0 m6.089996035887766,-0.9822574251431879 m2.357417820343651,0.5893544550859128 m0.9822574251431879,-1.1787089101718256 m1.3751603952004632,-4.125481185601389 m0.9822574251431879,-0.5893544550859128 m1.7680633652577384,6.089996035887766 m0.0,17.87708513760602 m-0.39290297005727515,1.5716118802291006 m-2.357417820343651,2.1609663353150133 m-8.643865341260053,4.3219326706300265 m-10.019025736460518,0.39290297005727515 m-3.3396752454868395,-0.7858059401145503 m-2.1609663353150133,-0.9822574251431879 m-8.250962371202778,-6.089996035887766 m-2.1609663353150133,-2.5538693053722885 m-0.9822574251431879,-2.9467722754295638 m0.0,-2.9467722754295638 m0.5893544550859128,-2.7503207904009264 m1.7680633652577384,-3.536126730515477 l8.643865341260053,8.05451088617414 m1.5716118802291006,4.714835640687302 l16.30547325737692,-9.626122766403242 m0.39290297005727515,7.072253461030954 m0.9822574251431879,1.7680633652577384 l-14.53740989211918,2.9467722754295638 m8.447413856231417,-0.5893544550859128 l-3.536126730515477,0.0 m-0.19645148502863757,7.072253461030954 l-8.250962371202778,-35.55771879018341 m0.19645148502863757,-7.072253461030954 m2.5538693053722885,0.19645148502863757 m4.3219326706300265,2.7503207904009264 m2.5538693053722885,0.5893544550859128 m-0.5893544550859128,-6.679350490973679 m0.5893544550859128,4.91128712571594 m1.7680633652577384,2.7503207904009264 m1.9645148502863758,1.1787089101718256 l0.9822574251431879,-5.500641580801853 m3.143223760458201,-2.5538693053722885 m0.5893544550859128,-1.5716118802291006 m-1.7680633652577384,0.0 m-1.7680633652577384,1.7680633652577384 m-0.5893544550859128,1.5716118802291006 m1.9645148502863758,2.357417820343651 m4.91128712571594,0.19645148502863757 m0.9822574251431879,-0.5893544550859128 l0.39290297005727515,-6.089996035887766 m-1.3751603952004632,2.357417820343651 m0.7858059401145503,2.5538693053722885 m1.7680633652577384,0.0 m1.5716118802291006,-1.1787089101718256 m1.1787089101718256,-2.357417820343651 m-0.7858059401145503,-2.1609663353150133 m-1.7680633652577384,-0.5893544550859128 l5.500641580801853,-1.7680633652577384 m2.357417820343651,6.089996035887766 m1.3751603952004632,-6.679350490973679 m4.3219326706300265,4.91128712571594 m0.39290297005727515,-9.036768311317328 l-40.861908885956616,53.63125541281806 m-2.5538693053722885,8.840316826288692 m-0.5893544550859128,8.05451088617414 m0.9822574251431879,5.304190095773215 m3.9290297005727517,7.465156431088229 l23.96708117349379,-35.36126730515477 m0.39290297005727515,6.8758019760023155 m2.357417820343651,14.930312862176457 m0.39290297005727515,9.82257425143188 l-31.82514057463929,-16.30547325737692 m-6.679350490973679,-24.752887113608335 m-1.1787089101718256,-1.1787089101718256 m-3.143223760458201,0.7858059401145503 m-3.143223760458201,5.69709306583049 m-0.19645148502863757,8.05451088617414 m3.536126730515477,11.983540586746894 m3.143223760458201,6.089996035887766 m6.482899005945041,8.643865341260053 l-13.751603952004631,-20.038051472921037 m2.357417820343651,0.19645148502863757 m5.304190095773215,-2.5538693053722885 m2.1609663353150133,-1.7680633652577384 m1.7680633652577384,-3.536126730515477 l12.769346526861444,12.376443556804167 m0.39290297005727515,10.804831676575068 m1.3751603952004632,5.69709306583049 l9.626122766403242,-20.823857413035583 m-0.5893544550859128,2.357417820343651 m0.0,12.965798011890081 m0.5893544550859128,4.125481185601389 l0.0,0.0 0.0,0.0 l0.0,0.0 0.0,0.0 l0.0,0.0 0.0,0.0 l0.0,0.0 0.0,0.0 l0.0,0.0 0.0,0.0 l0.0,0.0 0.0,0.0 l0.0,0.0 0.0,0.0 l0.0,0.0 0.0,0.0 l0.0,0.0 0.0,0.0 l0.0,0.0 0.0,0.0 l0.0,0.0 0.0,0.0 l0.0,0.0 0.0,0.0 l0.0,0.0 0.0,0.0 l0.0,0.0 0.0,0.0 l0.0,0.0 0.0,0.0 l0.0,0.0 0.0,0.0 l0.0,0.0 0.0,0.0 l0.0,0.0 0.0,0.0 l0.0,0.0 0.0,0.0 l0.0,0.0 0.0,0.0 l0.0,0.0 0.0,0.0 l0.0,0.0 0.0,0.0 l0.0,0.0 0.0,0.0 l0.0,0.0 0.0,0.0 l0.0,0.0 0.0,0.0 l0.0,0.0 0.0,0.0 l0.0,0.0 0.0,0.0 l0.0,0.0 0.0,0.0 l0.0,0.0 0.0,0.0 l0.0,0.0 0.0,0.0 l0.0,0.0 0.0,0.0 l0.0,0.0 0.0,0.0 l0.0,0.0 0.0,0.0 l0.0,0.0 0.0,0.0 l0.0,0.0 0.0,0.0 l0.0,0.0 0.0,0.0 l0.0,0.0 0.0,0.0 l0.0,0.0 0.0,0.0 l0.0,0.0 0.0,0.0 l0.0,0.0 0.0,0.0 l0.0,0.0 0.0,0.0 l0.0,0.0 0.0,0.0 l0.0,0.0 0.0,0.0 l0.0,0.0 0.0,0.0 l0.0,0.0 0.0,0.0 l0.0,0.0 0.0,0.0 l0.0,0.0 0.0,0.0 l0.0,0.0 0.0,0.0 l0.0,0.0 0.0,0.0 l0.0,0.0 0.0,0.0 l0.0,0.0 0.0,0.0 l0.0,0.0 0.0,0.0 " fill="none" stroke="black" stroke-width="1" /></svg>