<?xml version="1.0" encoding="utf-8" ?>
<svg baseProfile="full" height="2170.0" version="1.1" width="108.73899402356263" xmlns="http://www.w3.org/2000/svg" xmlns:ev="http://www.w3.org/2001/xml-events" xmlns:xlink="http://www.w3.org/1999/xlink"><defs /><rect fill="white" height="2170.0" width="108.73899402356263" x="0" y="0" /><path d="M36.001283161603695,940.0 m-0.5893544550859128,-40.0 m0.39290297005727515,-190.0 m2.7503207904009264,40.0 m3.9290297005727517,130.0 m4.3219326706300265,-70.0 m1.9645148502863758,-15.0 m10.019025736460518,0.0 m6.089996035887766,-25.0 m2.357417820343651,15.0 m0.9822574251431879,-30.0 m1.3751603952004632,-105.0 m0.9822574251431879,-15.0 m1.7680633652577384,155.0 m0.0,455.0 m-0.39290297005727515,40.0 m-2.357417820343651,55.0 m-8.643865341260053,110.0 m-10.019025736460518,10.0 m-3.3396752454868395,-20.0 m-2.1609663353150133,-25.0 m-8.250962371202778,-155.0 m-2.1609663353150133,-65.0 m-0.9822574251431879,-75.0 m0.0,-75.0 m0.5893544550859128,-70.0 m1.7680633652577384,-90.0 l8.643865341260053,205.0 m1.5716118802291006,120.0 l16.30547325737692,-245.0 m0.39290297005727515,180.0 m0.9822574251431879,45.0 l-14.53740989211918,75.0 m8.447413856231417,-15.0 l-3.536126730515477,0.0 m-0.19645148502863757,180.0 l-8.250962371202778,-905.0 m0.19645148502863757,-180.0 m2.5538693053722885,5.0 m4.3219326706300265,70.0 m2.5538693053722885,15.0 m-0.5893544550859128,-170.0 m0.5893544550859128,125.0 m1.7680633652577384,70.0 m1.9645148502863758,30.0 l0.9822574251431879,-140.0 m3.143223760458201,-65.0 m0.5893544550859128,-40.0 m-1.7680633652577384,0.0 m-1.7680633652577384,45.0 m-0.5893544550859128,40.0 m1.9645148502863758,60.0 m4.91128712571594,5.0 m0.9822574251431879,-15.0 l0.39290297005727515,-155.0 m-1.3751603952004632,60.0 m0.7858059401145503,65.0 m1.7680633652577384,0.0 m1.5716118802291006,-30.0 m1.1787089101718256,-60.0 m-0.7858059401145503,-55.0 m-1.7680633652577384,-15.0 l5.500641580801853,-45.0 m2.357417820343651,155.0 m1.3751603952004632,-170.0 m4.3219326706300265,125.0 m0.39290297005727515,-230.0 l-40.861908885956616,1365.0 m-2.5538693053722885,225.0 m-0.5893544550859128,205.0 m0.9822574251431879,135.0 m3.9290297005727517,190.0 l23.96708117349379,-900.0 m0.39290297005727515,175.0 m2.357417820343651,380.0 m0.39290297005727515,250.0 l-31.82514057463929,-415.0 m-6.679350490973679,-630.0 m-1.1787089101718256,-30.0 m-3.143223760458201,20.0 m-3.143223760458201,145.0 m-0.19645148502863757,205.0 m3.536126730515477,305.0 m3.143223760458201,155.0 m6.482899005945041,220.0 l-13.751603952004631,-510.0 m2.357417820343651,5.0 m5.304190095773215,-65.0 m2.1609663353150133,-45.0 m1.7680633652577384,-90.0 l12.769346526861444,315.0 m0.39290297005727515,275.0 m1.3751603952004632,145.0 l9.626122766403242,-530.0 m-0.5893544550859128,60.0 m0.0,330.0 m0.5893544550859128,105.0 l0.0,0.0 0.0,0.0 l0.0,0.0 0.0,0.0 l0.0,0.0 0.0,0.0 l0.0,0.0 0.0,0.0 l0.0,0.0 0.0,0.0 l0.0,0.0 0.0,0.0 l0.0,0.0 0.0,0.0 l0.0,0.0 0.0,0.0 l0.0,0.0 0.0,0.0 l0.0,0.0 0.0,0.0 l0.0,0.0 0.0,0.0 l0.0,0.0 0.0,0.0 l0.0,0.0 0.0,0.0 l0.0,0.0 0.0,0.0 l0.0,0.0 0.0,0.0 l0.0,0.0 0.0,0.0 l0.0,0.0 0.0,0.0 l0.0,0.0 0.0,0.0 l0.0,0.0 0.0,0.0 l0.0,0.0 0.0,0.0 l0.0,0.0 0.0,0.0 l0.0,0.0 0.0,0.0 l0.0,0.0 0.0,0.0 l0.0,0.0 0.0,0.0 l0.0,0.0 0.0,0.0 l0.0,0.0 0.0,0.0 l0.0,0.0 0.0,0.0 l0.0,0.0 0.0,0.0 l0.0,0.0 0.0,0.0 l0.0,0.0 0.0,0.0 l0.0,0.0 0.0,0.0 l0.0,0.0 0.0,0.0 l0.0,0.0 0.0,0.0 l0.0,0.0 0.0,0.0 l0.0,0.0 0.0,0.0 l0.0,0.0 0.0,0.0 l0.0,0.0 0.0,0.0 l0.0,0.0 0.0,0.0 l0.0,0.0 0.0,0.0 l0.0,0.0 0.0,0.0 l0.0,0.0 0.0,0.0 l0.0,0.0 0.0,0.0 l0.0,0.0 0.0,0.0 l0.0,0.0 0.0,0.0 l0.0,0.0 0.0,0.0 l0.0,0.0 0.0,0.0 l0.0,0.0 0.0,0.0 l0.0,0.0 0.0,0.0 l0.0,0.0 0.0,0.0 l0.0,0.0 0.0,0.0 l0.0,0.0 0.0,0.0 l0.0,0.0 0.0,0.0 " fill="none" stroke="black" stroke-width="1" /></svg>